<svg xmlns="http://www.w3.org/2000/svg" width="2024.865" height="2024.849" viewBox="0 0 255.101 255.131" preserveAspectRatio="xMinYMin meet">
    <path d="M255.133 127.566c0 70.455-57.11 127.565-127.567 127.565C57.116 255.131 0 198.021 0 127.566 0 57.116 57.116 0 127.566 0c70.456 0 127.567 57.116 127.567 127.566" fill="#1a1918"/>
    <path d="M129.714 77.927l33.011 81.476-49.863-39.278 16.852-42.197zm58.644 100.245L137.58 55.97c-1.45-3.524-4.348-5.39-7.866-5.39-3.525 0-6.634 1.866-8.084 5.39L65.898 190.01h19.065l22.062-55.265 65.84 53.19c2.647 2.141 4.558 3.11 7.041 3.11 4.974 0 9.322-3.73 9.322-9.111 0-.876-.31-2.267-.87-3.762z" fill="#fff"/>
</svg>
