<svg xmlns="http://www.w3.org/2000/svg" width="600" height="600">
    <path d="M300.984 413.156c-62.394 0-113.165-50.762-113.165-113.156 0-62.404 50.77-113.175 113.165-113.175 51.512 0 95.053 34.597 108.703 81.763h43.786c-14.576-70.841-77.4-124.272-152.489-124.272-85.836 0-155.674 69.838-155.674 155.684 0 85.836 69.838 155.674 155.674 155.674 75.09 0 137.913-53.42 152.489-124.262h-43.786c-13.65 47.156-57.191 81.744-108.703 81.744" fill="#435363"/>
    <path d="M224.696 376.278c19.545 19.545 46.533 31.655 76.288 31.655v-45.12c-17.343 0-33.048-7.044-44.418-18.404z" fill="#435363"/>
    <path d="M193.05 299.99c0 15.443 3.294 30.136 9.16 43.435l41.27-18.152a62.507 62.507 0 01-5.32-25.283c0-34.695 28.13-62.813 62.814-62.813v-45.12c-59.51 0-107.923 48.423-107.923 107.933" fill="#f38b00"/>
    <path d="M340.112 199.413l-16.368 42.06c13.367 5.213 24.523 14.83 31.616 27.106h48.871c-9.645-31.675-33.496-57.212-64.119-69.166" fill="#435363"/>
    <path d="M323.763 358.507l16.359 42.06c30.622-11.954 54.473-37.5 64.129-69.175H355.38a63.012 63.012 0 01-31.617 27.115" fill="#f38b00"/>
    <path d="M101.3 360.368a214.08 214.08 0 01-2.143-7.57 222.649 222.649 0 01-1.637-6.684 67.546 67.546 0 01-.302-1.374c-.429-1.92-.818-3.858-1.198-5.797-.166-.867-.312-1.734-.458-2.601-.273-1.55-.546-3.089-.79-4.658-.204-1.334-.38-2.66-.555-3.994-1.228-9.1-1.89-18.346-1.88-27.71H49.71c-.01 10.211.633 20.295 1.832 30.253.02.214.058.428.087.643.332 2.708.702 5.417 1.12 8.096.118.74.244 1.481.371 2.231.37 2.202.75 4.404 1.179 6.596.214 1.17.468 2.32.711 3.479.36 1.744.73 3.488 1.13 5.222.351 1.52.731 3.04 1.12 4.56.342 1.354.673 2.708 1.034 4.063.487 1.792 1.003 3.565 1.52 5.348.214.74.409 1.5.633 2.232h.02c2.942 9.733 6.43 19.232 10.483 28.43l39.06-17.177a207.264 207.264 0 01-8.71-23.588z" fill="#435363"/>
    <path d="M300.984 508.647c-57.523 0-109.668-23.422-147.441-61.205l-30.194 30.193c45.47 45.471 108.255 73.628 177.635 73.628 128.13 0 233.843-95.91 249.305-219.851h-43.015c-15.2 100.187-101.913 177.235-206.29 177.235m0-417.294c46.738 0 89.909 15.442 124.73 41.505l25.537-34.227c-41.914-31.334-93.923-49.894-150.267-49.894-106.618 0-197.716 66.408-234.194 160.127l39.762 15.471c30.35-77.759 106.063-132.982 194.432-132.982" fill="#f38b00"/>
    <path d="M507.274 268.588h43.015c-4.608-36.974-17.255-71.455-36.137-101.64l-36.224 22.605c14.79 23.607 24.99 50.371 29.346 79.035" fill="#435363"/>
    <path d="M458.812 268.588h43.161C490.71 196.217 441.148 136.375 374.73 110.45l-15.413 39.635c50.508 19.72 88.71 64.216 99.496 118.504" fill="#f38b00"/>
    <path d="M300.984 139.084l.01-42.5h-.01c-86.158 0-159.961 53.84-189.56 129.651l39.605 15.414c23.422-59.969 81.802-102.565 149.955-102.565" fill="#435363"/>
    <path d="M140.078 299.99h-42.5c0 85.476 53.012 158.773 127.878 188.82l15.784-39.45c-59.228-23.772-101.162-81.753-101.162-149.37" fill="#f38b00"/>
    <path d="M300.984 460.897v42.509c101.484 0 185.839-74.71 200.99-172.014h-43.172c-14.644 73.755-79.835 129.505-157.818 129.505" fill="#435363"/>
</svg>
