<?xml version="1.0" encoding="UTF-8"?>
<svg width="397px" height="355px" viewBox="0 0 397 355" version="1.1" xmlns="http://www.w3.org/2000/svg" xmlns:xlink="http://www.w3.org/1999/xlink">
    <!-- Generator: Sketch 52.2 (67145) - http://www.bohemiancoding.com/sketch -->
    <title>Group 11</title>
    <desc>Created with Sketch.</desc>
    <g id="Exploration_IB" stroke="none" stroke-width="1" fill="none" fill-rule="evenodd">
        <g id="Group-11" transform="translate(0.000000, 1.000000)">
            <g id="Group-9">
                <path d="M384,353 C384,291.144216 333.631926,241 271.5,241 C209.368074,241 159,291.144216 159,353 L384,353 Z" id="Stroke-1" stroke="#BDC1C6"></path>
                <polygon id="Stroke-3" stroke="#BDC1C6" points="200 21.3725573 261.790476 0 319 165.625923 257.209524 187"></polygon>
                <polygon id="Stroke-5" stroke="#BDC1C6" points="48 353 160 353 160 241 48 241"></polygon>
                <path d="M392.226696,79.3891212 C392.226696,79.3891212 407.242185,86.3667441 384.009666,104.580257 C384.009666,104.580257 338.031813,135.659172 373.326745,90.4674434 C384.788642,75.7926385 392.226696,79.3891212 392.226696,79.3891212" id="Fill-7" fill="#E44335"></path>
                <path d="M20.8704947,269.137626 C17.8888179,271.875103 7.11965762,267.714885 2.35102574,262.009253 C-2.41760613,256.304954 0.86018734,248.023187 5.16349304,245.072366 C9.46679874,242.121545 17.0594349,241.318836 21.9036983,249.541933 C25.9916464,256.486297 23.2471193,266.954845 20.8704947,269.137626" id="Fill-8" fill="#FABB05" style="mix-blend-mode: multiply;"></path>
                <path d="M217.141856,95.6122121 C231.638995,90.2560355 247.073659,99.0872201 252.026955,109.731284 C256.978973,120.375348 252.456121,140.14308 240.182728,146.008203 C227.909335,151.873326 207.451125,144.053592 202.067386,132.105594 C196.683647,120.158885 201.851525,101.259583 217.141856,95.6122121" id="Fill-9" fill="#34A253" style="mix-blend-mode: multiply;"></path>
                <path d="M346.60524,223.559288 C349.203163,215.137233 357.48812,212.041379 365.810491,215.228777 C374.131904,218.4171 376.906347,226.850252 373.705952,233.533894 C370.504597,240.219386 362.610096,242.790018 353.859854,239.704335 C345.11153,236.619577 345.431953,227.363453 346.60524,223.559288" id="Fill-10" fill="#3E82F7" style="mix-blend-mode: multiply;"></path>
            </g>
        </g>
    </g>
</svg>