<?xml version="1.0" encoding="UTF-8"?>
<svg width="283px" height="499px" viewBox="0 0 283 499" version="1.1" xmlns="http://www.w3.org/2000/svg" xmlns:xlink="http://www.w3.org/1999/xlink">
    <!-- Generator: Sketch 52.2 (67145) - http://www.bohemiancoding.com/sketch -->
    <title>Group 10</title>
    <desc>Created with Sketch.</desc>
    <g id="Exploration_IB" stroke="none" stroke-width="1" fill="none" fill-rule="evenodd">
        <g id="Group-10" transform="translate(1.000000, 1.000000)">
            <path d="M77.3434247,254.519382 C76.5725542,260.210534 70.4000194,263.755646 63.078241,262.686947 C55.7564626,261.618051 51.4684329,256.706867 52.6258329,251.045963 C53.7832329,245.385059 60.0761229,242.237494 66.7398265,242.985642 C73.4033312,243.733987 78.178949,248.351922 77.3434247,254.519382" id="Fill-14" fill="#FABB05" style="mix-blend-mode: multiply;" transform="translate(64.938331, 252.876628) rotate(-44.000000) translate(-64.938331, -252.876628) "></path>
            <path d="M189.491876,165.695737 C189.491876,165.695737 202.850664,160.288183 209.833462,179.624555 C209.833462,179.624555 217.899865,216.209035 191.609766,180.012891 C182.665525,167.698308 189.491876,165.695737 189.491876,165.695737" id="Fill-17" fill="#3E82F7" style="mix-blend-mode: multiply;" transform="translate(199.000000, 180.500000) rotate(185.000000) translate(-199.000000, -180.500000) "></path>
            <polygon id="Stroke-1" stroke="#9AA0A6" points="94 403.058594 187.296092 403.058594 187.296092 312 94 312"></polygon>
            <polygon id="Stroke-2" stroke="#9AA0A6" points="0 497 94 497 94 403 0 403"></polygon>
            <path d="M234.671211,312 C260.447346,312 281.342422,332.37995 281.342422,357.520626 C281.342422,382.660376 260.447346,403.040326 234.671211,403.040326 C208.896026,403.040326 188,382.660376 188,357.520626 C188,332.37995 208.896026,312 234.671211,312 Z" id="Stroke-3" stroke="#9AA0A6"></path>
            <polyline id="Stroke-6" stroke="#9AA0A6" transform="translate(144.092633, 131.878906) rotate(12.000000) translate(-144.092633, -131.878906) " points="102.267709 173.675613 102.267709 90.0821992 185.917557 90.0821992"></polyline>
            <path d="M111.042267,174.191271 C157.241217,174.191271 194.692115,136.765083 194.692115,90.5978567 C194.692115,44.4296233 157.241217,7.00444244 111.042267,7.00444244 L111.042267,174.191271 Z" id="Stroke-8" stroke="#9AA0A6" transform="translate(152.867191, 90.597857) rotate(12.000000) translate(-152.867191, -90.597857) "></path>
            <path d="M164.002184,25.2859766 C168.301686,10.936802 182.014723,5.66276244 195.789294,11.0940815 C209.563864,16.5254006 214.155388,30.8921657 208.857797,42.2809662 C203.559163,53.6692493 190.491703,58.0492786 176.010543,52.7933469 C161.529905,47.5368979 162.059195,31.7685855 164.002184,25.2859766" id="Fill-12" fill="#E44335" style="mix-blend-mode: multiply;"></path>
            <path d="M121.363876,429.012132 C121.064881,428.162821 120.809422,427.293751 120.56295,426.423858 C119.900778,424.086947 119.517098,421.035872 121.205039,419.014812 C121.826484,418.270601 122.75507,417.82605 123.703317,417.572216 C129.976045,415.893213 137.97983,417.955436 141.960445,423.149273 C144.664326,426.677142 145.184514,433.124504 140.379519,435.076 C135.268365,437.152081 128.473343,438.48395 124.22196,434.00798 C122.842985,432.555917 122.003578,430.829029 121.363876,429.012132" id="Fill-1" fill="#34A253" style="mix-blend-mode: multiply;" transform="translate(132.000000, 427.000000) rotate(20.000000) translate(-132.000000, -427.000000) "></path>
        </g>
    </g>
</svg>