<?xml version="1.0" encoding="utf-8"?>
<!-- Generator: Adobe Illustrator 19.2.0, SVG Export Plug-In . SVG Version: 6.00 Build 0)  -->
<svg version="1.1" xmlns="http://www.w3.org/2000/svg" xmlns:xlink="http://www.w3.org/1999/xlink" x="0px" y="0px"
	 viewBox="0 0 2000 1800" style="enable-background:new 0 0 2000 1800;" xml:space="preserve">
<style type="text/css">
	.st0{fill:#BBE2F2;}
	.st1{fill:#1C31B5;}
	.st2{fill:#009CF8;}
	.st3{fill:#006BDE;}
	.st4{fill:#18315B;}
	.st5{fill:#000B29;}
	.st6{fill:#F97853;}
	.st7{fill:#EA5143;}
	.st8{fill:#FFA681;}
	.st9{fill:#FFFFFF;}
	.st10{fill:#264CBE;}
	.st11{fill:#E3E3E3;}
	.st12{fill:#1D567E;}
</style>
<g id="OBJECTS">
	<g>
		<g>
			<path class="st0" d="M872.6,517.3c-65.2-236.6-359.1-312.8-527.6-136c-2.4,2.5-4.8,5.1-7.3,7.7
				C96.3,651.6,210.3,1298.4,714.3,1462.4c504,164,1028.2-135.4,1057.6-403.1c29.4-267.6-203.1-351.7-563.9-276.9
				C1004.2,824.7,913.2,664.6,872.6,517.3z"/>
			<path class="st0" d="M1291.8,557.8c-67.4,11-86.1,70.7-34.1,113.1c17.2,14,41.8,25.6,76.8,31.5
				c133.4,22.1,204.1-36.9,150.7-113.4C1452.2,541.7,1358.6,546.9,1291.8,557.8z"/>
			<path class="st0" d="M216.7,1035.8c-41.9-53.9-103.3-41.7-115.6,24.2c-4.1,21.8-2.5,49,9.2,82.5c44.4,127.7,130.1,161.6,171.7,78
				C307.6,1169,258.2,1089.3,216.7,1035.8z"/>
			<path class="st0" d="M1819.4,1090.4c-6.2,32.5,20.6,55.6,51.1,43c10.1-4.1,20.2-12.1,29.2-26.2c34.4-53.5,17-99.3-30.9-94.6
				C1839.3,1015.5,1825.6,1058.2,1819.4,1090.4z"/>
			<path class="st0" d="M1649,747.3c32.4,6.8,55.9-19.7,43.9-50.3c-4-10.1-11.8-20.4-25.7-29.7c-52.9-35.3-99-18.7-95.2,29.3
				C1574.4,726.1,1616.9,740.6,1649,747.3z"/>
			<path class="st0" d="M861.3,399.3c25.7,20.9,58.7,8.2,62.1-24.5c1.1-10.8-1.1-23.5-9.1-38.1c-30.7-55.7-79.3-62.1-98-17.8
				C804.9,346.2,835.9,378.6,861.3,399.3z"/>
		</g>
		<g>
			<path class="st1" d="M1899.8,1253.1c51.5-51.7,90.6-110.2,51.7-119.3c-39-9.1-104.6,92.8-116,185.5l-11.4,30.6
				c9.5-67.4-13.6-149.6-47.4-152.9c-33.6-3.4-13.3,49.9,13.4,95.5c20.3,34.7,25.7,62,27,76.2l-54,144.6
				c14.7-106.8-21.9-236.4-75.4-241.8c-53.3-5.3-21.1,79.2,21.3,151.5c32,54.6,40.6,97.8,42.8,120.4l-10.8,28.8
				c4.7,2.6,9.4,5.3,14.2,7.9l64.2-172c12.4-9.2,31.2-20.4,58-29.5c50-16.9,100.3-43.8,72.7-63.3c-23.9-16.9-80.3,15.6-119,61.6
				l22.2-59.5C1863.3,1300,1877.6,1275.4,1899.8,1253.1z"/>
			<path class="st1" d="M277.8,578.2c6.7-62.5,1.5-122.9-29.6-108c-31.1,14.9-20.2,118.6,22.1,187.1l8.8,26.7
				c-30-50.4-89.8-93.1-114.3-77.1c-24.4,15.9,18,40.7,60.5,56.9c32.3,12.3,50.7,27.8,59.2,36.6l41.7,126.2
				c-47.7-79.7-142.1-147-181-121.7c-38.7,25.2,28.6,64.5,96,90.3c50.9,19.4,80,43.8,93.7,57.8l8.3,25.2c4.6-0.8,9.2-1.5,13.8-2.4
				l-49.6-150.1c3.3-12.9,9.9-30.5,23-51.1c24.5-38.3,43.7-83.5,14.7-81.7c-25.2,1.6-45.5,53.8-46.7,105.5l-17.2-51.9
				C278.6,629.4,274.9,605.2,277.8,578.2z"/>
			<g>
				<g>
					<path class="st2" d="M1552.4,1424.9c0.7,3.5,1.4,7.4,2.3,11.5l0,0c9.3,43.1,32,113.6,83.2,127.5c0,0-27.9-145.3,71.4-183.1
						c99.3-37.8,88.3-73.9,82.6-138s-27.6-76.3,41.3-136.4c68.9-60.1,55.7-149.5,55.7-149.5s-65.2,102.1-134.8,104.5
						c-69.6,2.4-81.8,61.8-78.9,106c3,44.2-56.2,49.2-88.2,74.9c-32,25.6-38,160.3-38,160.3S1550,1411.4,1552.4,1424.9z"/>
				</g>
				<g>
					<path class="st3" d="M1552.4,1424.9c0.7,3.5,1.4,7.4,2.3,11.5c7.1-21.6,17.2-39.8,26.6-53.7c22.3-33,53.6-60.1,81.8-70.7
						c44.9-16.9,66.9-61,71.1-142.9c2.5-47.5,52.2-75.6,52.7-75.9c1.5-0.8,2-2.6,1.2-4.1c-0.8-1.5-2.6-2-4.1-1.2
						c-2.2,1.2-53.2,29.9-55.8,80.8c-4.1,79.1-24.8,121.6-67.2,137.5c-29.8,11.2-61.4,38.5-84.7,73
						C1568.1,1391.5,1559.4,1406.9,1552.4,1424.9z"/>
				</g>
			</g>
			<g>
				<g>
					<path class="st3" d="M453.4,1563.1h69.8c-37.7-6.2-131.2-46.4-139.5-126.8c-10.6-101.9-46.8-100.6-108-111.3
						c-61.2-10.7-78,6.7-116.8-72.4c-38.8-79.1-125.5-89.1-125.5-89.1s79,86.1,63.8,151.6c-15.1,65.5,37.2,91.6,79.2,99.8
						c41.9,8.2,31.9,64.6,47.8,100.8c7.3,16.5,37,33.6,67.2,47.4H453.4z"/>
				</g>
				<g>
					<path class="st1" d="M302.3,1462.8c3,30.5,20.6,66.8,46.9,97.1c0.9,1.1,1.9,2.1,2.9,3.2h7.9c-2.3-2.4-4.4-4.8-6.4-7.1
						c-25.2-29-42.7-64.9-45.6-93.8c-4.6-46.1-40.2-77.4-115.4-101.8c-43.7-14.1-57.5-67.4-57.6-68c-0.4-1.6-2-2.5-3.5-2.1
						c-1.6,0.4-2.5,2-2.1,3.5c0.6,2.3,14.7,57,61.4,72.1C263.6,1389.5,297.9,1419.3,302.3,1462.8z"/>
				</g>
			</g>
			<g>
				<g>
					<path class="st2" d="M491,1374c-1.5,5-3.2,10.3-5,16.1l0,0c-19.8,60-60.5,161.1-135.7,173.1c0,0,59.5-207-76.4-276.2
						s-114.6-118.9-96.7-209.5c18-90.6,51.1-104.7-37.9-200.9c-89-96.3-56.5-221.9-56.5-221.9s77.3,155.7,176.3,169.8
						s107.2,100.8,96.2,163.4c-11,62.6,72.6,78.8,114.3,120.3c41.7,41.5,29.6,234.5,29.6,234.5S496.6,1355.1,491,1374z"/>
				</g>
				<g>
					<path class="st3" d="M491,1374c-1.5,5-3.2,10.3-5,16.1c-6.9-31.9-18.4-59.4-29.7-80.7c-26.7-50.5-67.3-94-105.9-113.5
						c-61.5-31-86-97.3-79.5-214.7c3.8-68.2-62.8-115.9-63.5-116.3c-1.9-1.4-2.4-4.1-1.1-6c1.4-2,4.1-2.4,6-1.1
						c2.9,2,71.2,50.9,67.2,123.9c-6.3,113.5,16.7,177.2,74.7,206.5c40.7,20.6,81.7,64.4,109.6,117.2
						C473.8,1324,483.9,1347.2,491,1374z"/>
				</g>
			</g>
		</g>
		<g>
			<g>
				<path class="st4" d="M544.9,1514.5c0.2,15.7,0.5,32.1,0.9,48.7h151.8c0.3-18.1,0.5-35.5,0.7-51.8c0.5-44.2,0.5-80.5,0.5-103.1
					c0-16-0.1-25.1-0.1-25.1l-154.7-1.6c0,0,0,13.4,0.1,35.2C544.1,1441,544.3,1475.8,544.9,1514.5z"/>
				<path class="st5" d="M544,1416.7c0.1,24.3,0.4,59.1,0.9,97.8c47.7,3.6,99.9,3.7,153.3-3.1c0.5-44.2,0.5-80.5,0.5-103.1
					L544,1416.7z"/>
			</g>
			<g>
				<path class="st4" d="M353.7,1479.6c0.2,24.7,0.5,53.1,1,83.6h151.8c0.4-17.9,0.7-35.5,0.9-52.3c0.5-36.2,0.8-68.7,0.9-92.1
					c0.1-23,0.1-37.2,0.1-37.2l-154.8,1.6c0,0-0.1,16.4-0.1,44C353.5,1441.7,353.5,1459.5,353.7,1479.6z"/>
				<path class="st5" d="M353.5,1427.1c0,14.6,0.1,32.3,0.2,52.4c30.8,9.1,86,23.2,153.6,31.2c0.5-36.2,0.8-68.7,0.9-92.1
					L353.5,1427.1z"/>
			</g>
			<g>
				<path class="st4" d="M607.9,567.3c0,0,24.4-23.5,24.3-46.7c-0.1-23.2-15.8-16.3-24.3-38c-8.5-21.6-33.6-34.8-47.4-32.2
					c-13.8,2.6-42.9-51.1-82.4-41.6c-39.5,9.5-36,60.1-53,67.5c-17,7.4-12.3,37.4-3.3,44.3c9,6.9,12.8,34.4,17.8,33.8
					C444.6,553.8,607.9,567.3,607.9,567.3z"/>
				<g>
					<path class="st6" d="M443.7,566.7c0,0-15.3-20.4-26.7-3.5c-11.4,16.9,4.7,66.8,32.6,54.6L443.7,566.7z"/>
					<g>
						<path class="st7" d="M443.5,602.4c-1,0-2-0.7-2.3-1.7c-4.3-15.4-20.3-21.7-20.5-21.7c-1.2-0.5-1.8-1.8-1.4-3
							c0.5-1.2,1.8-1.8,3-1.4c0.7,0.3,18.3,7.1,23.3,24.9c0.4,1.3-0.4,2.6-1.6,2.9C444,602.4,443.7,602.4,443.5,602.4z"/>
					</g>
					<g>
						<path class="st7" d="M427.4,594.6c-0.4,0-0.9-0.1-1.3-0.4c-1.1-0.7-1.4-2.2-0.7-3.3c0.1-0.2,2.9-4.5,8.9-7.1
							c1.2-0.5,2.6,0,3.1,1.2c0.5,1.2,0,2.6-1.2,3.1c-4.6,2-6.8,5.4-6.8,5.4C429,594.3,428.2,594.6,427.4,594.6z"/>
					</g>
				</g>
				<g>
					<path class="st6" d="M601.7,566.7c0,0,15.3-20.4,26.7-3.5c11.4,16.9-4.7,66.8-32.6,54.6L601.7,566.7z"/>
					<g>
						<path class="st7" d="M601.9,602.4c1,0,2-0.7,2.3-1.7c4.3-15.4,20.3-21.7,20.5-21.7c1.2-0.5,1.8-1.8,1.4-3
							c-0.5-1.2-1.8-1.8-3-1.4c-0.7,0.3-18.3,7.1-23.3,24.9c-0.4,1.3,0.4,2.6,1.6,2.9C601.5,602.4,601.7,602.4,601.9,602.4z"/>
					</g>
					<g>
						<g>
							<path class="st7" d="M618.1,594.6c0.4,0,0.9-0.1,1.3-0.4c1.1-0.7,1.4-2.2,0.7-3.3c-0.1-0.2-2.9-4.5-8.9-7.1
								c-1.2-0.5-2.6,0-3.1,1.2c-0.5,1.2,0,2.6,1.2,3.1c4.6,2,6.8,5.4,6.8,5.4C616.5,594.3,617.3,594.6,618.1,594.6z"/>
						</g>
					</g>
				</g>
				<path class="st8" d="M560.5,660.2v49.7c0,0-14.8,25.3-34.8,27c-20,1.7-37.8-21.8-37.8-21.8v-51.4L560.5,660.2z"/>
				<path class="st6" d="M560.5,660.2v22c-13.4,14.9-37.3,18.6-72.6,13.4v-32L560.5,660.2z"/>
				<path class="st8" d="M612.8,532.7c-0.9,19.3-2.8,43.4-6.4,62.7c-0.9,4.8-2,9.3-3.1,13.4c-10.4,36.6-36.6,99.3-109.8,73.2
					c-32.3-11.5-47.3-47.5-54-84.1c-4.5-24.9-5.2-50-4.9-67.9c0.4-18.3,10.4-35.1,26.3-44.1c43.2-24.5,88.8-15.4,118.8-3.8
					C600.6,490,613.9,510.4,612.8,532.7z"/>
				<path class="st4" d="M439.6,597.8c0,0,7.1,42.3,13.8,57.7c6.7,15.4,25,18.3,31.9,31.4c9.8,18.6,24.8,33.3,49.4,24.3
					c20.5-7.5,19.5-17.9,31-26c19.6-13.9,29.4-29.1,30.2-41.8c0.8-12.7,10.5-48,10.5-48l-10.5-0.7c0,0-6,12.4-14.8,26.2
					c-8.9-19.5-51.6-5.3-51.6-5.3l-8.2,2.6l-8.4-2.6c0,0-43.3-13.6-51.8,6.9c-5.2-8-9.5-17-11.4-26.5L439.6,597.8z M521.2,624.7
					c49-8.4,40.3,20.3,39.9,21.3v0c0,0,0,0,0,0c-3.3,3.2-6.7,5.8-10.1,7.6c-19,10.3-21,8.7-28.5,9c-7.6,0.4-18.1-1.9-28.8-7.9
					c-3.3-1.9-8.3-5.5-13.7-10.4C480,644.5,472.3,618.1,521.2,624.7z"/>
				<ellipse class="st4" cx="485.7" cy="573.2" rx="6.1" ry="9.6"/>
				<ellipse class="st4" cx="558.2" cy="573.2" rx="6.1" ry="9.6"/>
				<path class="st4" d="M582.2,541.6c0,0-25.2-10-44.6-1.6l1.9,10.8c0,0,28.5-2.4,42.8,3.4C583.7,550.1,583.8,545.9,582.2,541.6z"
					/>
				<path class="st4" d="M462.3,541.7c0,0,25.4-10,45-1.6l-2,10.9c0,0-28.7-2.4-43.2,3.4C460.9,550.2,460.7,546,462.3,541.7z"/>
				<g>
					<path class="st6" d="M523.6,613.4c4,0,7.9-1.5,8.5-1.8c1.2-0.5,1.8-1.9,1.3-3.1c-0.5-1.2-1.9-1.8-3.1-1.3
						c-2.1,0.9-7.2,2.2-9.5,0.9c-0.4-0.3-1-0.8-1.2-2.2c-0.9-8.2,1.4-35.8,1.4-36.1c0.1-1.3-0.9-2.4-2.2-2.5
						c-1.3-0.1-2.4,0.9-2.5,2.2c-0.1,1.2-2.3,28.3-1.4,37c0.3,3.3,2.1,4.9,3.4,5.8C519.9,613.1,521.8,613.4,523.6,613.4z"/>
				</g>
				<path class="st9" d="M493.5,629.4c1.8,9,7.7,25.6,27.8,25.6c20.1,0,25.7-15.1,27.7-25.6H493.5z"/>
				<path class="st4" d="M612.8,532.7c-0.9,19.3-2.8,43.4-6.4,62.7l-10.5-0.7c0,0,2.6-16.3,3.7-26.9c1.2-10.6,3.2-30.5-5.9-32.9
					c-9-2.5-3.7-25.1-16.3-34.9c-12.6-9.8-40.5-18.5-59-7.1c-18.5,11.4-39.6,5.1-48.2,7.1c-8.6,2-20.2,13.8-17,24.8
					c3.2,11-6.3,17.7-8.6,29.1c-2.3,11.4,5,42.1,5,42.1l-10.1,2c-4.5-24.9-5.2-50-4.9-67.9c0.4-18.3,10.4-35.1,26.3-44.1
					c43.2-24.5,88.8-15.4,118.8-3.8C600.6,490,613.9,510.4,612.8,532.7z"/>
			</g>
			<g>
				<g>
					<path class="st3" d="M730.7,1457.7c-47.7,12.1-95.5,19.9-143.2,23.5c-2.2,0.2-4.3,0.3-6.5,0.5c-6.6,0.4-13.1,0.8-19.7,1.1
						c-32.5,1.4-65,0.9-97.5-1.7c-6.6-0.5-13.1-1.1-19.6-1.8c-2.1-0.2-4.2-0.4-6.3-0.7c-38.8-4.2-77.6-11.2-116.4-21
						c-0.4-35.8,0.1-148.8,2.3-271.5c0.3-14.7,0.5-29.6,0.9-44.5c3.4-161.6,10.1-325.7,22-342.1c11.4-15.7,45.9-35.7,78.9-53.7
						c2-1.1,3.9-2.1,5.9-3.2c7.4-4,14.7-7.9,21.5-11.6c14.6-8,27.2-15,35-20.5v4.5c0,0,17.8,23.5,37.8,21.8
						c18.2-1.6,32.1-22.6,34.5-26.4c8.6,6.1,24.1,14.4,42,23.9c5,2.6,10.1,5.3,15.4,8.1c1.9,1,3.9,2.1,5.8,3.1
						c36.5,19.3,75.8,41.2,87.6,57.4c0.9,1.2,1.7,3.2,2.5,6c7,23.6,11.3,102.1,14,197.2c0,0.3,0,0.7,0,1c0.1,3.8,0.2,7.7,0.3,11.6
						c0,0.5,0,1,0,1.5c0.9,33.3,1.5,68.4,2,103.7c0,2.8,0.1,5.6,0.1,8.4c0,1.4,0,2.8,0,4.2c0.1,6.9,0.2,13.9,0.3,20.8
						c0.1,5.1,0.1,10.2,0.2,15.3C731.7,1300,731.2,1420.2,730.7,1457.7z"/>
				</g>
				<g>
					<path class="st10" d="M727.7,1018.6c-11.5-18.8-23.8-37.9-35.4-54.8c0,0-0.1-0.1-0.1-0.1c-4.9-7.1-9.6-13.8-14.1-20
						c-0.1-0.1-0.1-0.2-0.2-0.3c-1.4-1.9-2.8-3.8-4.2-5.6c-0.2-0.3-0.4-0.6-0.5-1l0,0c-0.4-1.2,0-2.6,1.1-3.4
						c1.4-1.1,3.4-0.8,4.4,0.6c13.9,18.5,31.8,45.1,48.7,72c0,0.3,0,0.7,0,1C727.6,1010.9,727.6,1014.8,727.7,1018.6z"/>
				</g>
				<path class="st3" d="M711.4,800.3c0,0,72,131.9,115.8,198.7c0,0,25-22.9,57.4-53.6c35.2-33.2,83.3-88.8,83.3-88.8l26.6,31.6
					c0,0-108.1,194.6-156.6,219c-48.5,24.5-137.9-148.6-137.9-148.6L711.4,800.3z"/>
				<g>
					<path class="st10" d="M406.7,1320c0,0-0.1,0-0.1,0c-1.8-0.1-3.2-1.6-3.1-3.4c3.8-106.5-51.4-141-52-141.3
						c-1.5-0.9-2-2.9-1.1-4.5c0.9-1.5,2.9-2,4.5-1.1c0.6,0.4,15.2,9.2,29.3,32c12.9,20.7,27.9,57.6,25.8,115.2
						C409.9,1318.6,408.4,1320,406.7,1320z"/>
				</g>
				<g>
					<path class="st10" d="M642.2,1219.7c-1.7,0-3.1-1.3-3.2-3c-1.7-22.4,5.6-38.8,15-59.5c2.7-6.1,5.6-12.3,8.5-19.3
						c18.1-44,9-94.4,8.9-94.9c-0.3-1.8,0.8-3.5,2.6-3.8c1.8-0.3,3.5,0.8,3.8,2.6c0.4,2.1,9.6,52.7-9.3,98.5
						c-2.9,7.1-5.8,13.4-8.5,19.5c-9.3,20.6-16.1,35.5-14.4,56.3c0.1,1.8-1.2,3.4-3,3.5C642.4,1219.7,642.3,1219.7,642.2,1219.7z"/>
				</g>
				<g>
					<path class="st9" d="M452.9,731.1c1.4,10.5,3.4,24.1,5.7,39.5c0.7,4.6,1.4,9.3,2.1,14.2c2.3,16,4.6,33.3,6.6,50.9
						c0.5,4.7,1,9.4,1.5,14.2c1.8,17.4,3.1,34.6,3.6,50.7c0.2,4.9,0.2,9.6,0.2,14.2c0,12.3-0.7,23.5-2.2,33.1
						c-0.9,6.1-1.8,12-2.5,17.9c-0.6,4.8-1.2,9.6-1.7,14.2c-1.9,18.1-2.8,35-3.1,50.9c-0.1,4.8-0.1,9.6,0,14.2
						c0.1,18,1.2,34.9,2.7,50.9c0.4,4.8,0.9,9.5,1.4,14.2c1.9,17.5,4.3,34.1,6.5,50.6c0.6,4.7,1.3,9.4,1.9,14.1
						c1,7.5,1.9,15.1,2.7,22.6c0.8,8,1.4,17.4,1.6,27.8c0.1,4.6,0.2,9.3,0.2,14.2c0.1,15.6-0.3,32.8-1.1,50.9
						c-0.2,4.7-0.4,9.5-0.6,14.3c-0.8,16.8-1.9,34-3.1,51c-0.3,4.8-0.7,9.6-1.1,14.3c-1.3,17.7-2.8,35-4.2,51
						c-0.4,4.9-0.9,9.6-1.3,14.2c-1.7,17.7-3.3,33.4-4.8,45.9c32.5,2.5,65,3.1,97.5,1.6c0.8-13.3,2.8-34.8,4.9-60.2
						c0.4-4.6,0.7-9.4,1.1-14.3c1.2-16.1,2.3-33.3,3.1-50.7c0.2-4.8,0.4-9.5,0.5-14.3c0.5-17.3,0.5-34.6-0.2-50.7
						c-0.2-4.9-0.5-9.7-0.9-14.4c-0.4-4.8-0.8-9.4-1.4-13.9c-1.6-12.7-2.2-24.9-2.1-36.9c0-4.8,0.1-9.5,0.4-14.3
						c0.7-16.5,2.5-33.1,4.6-50.6c0.6-4.7,1.1-9.4,1.7-14.2c1.9-15.6,3.8-32.2,5.4-50.3c0.4-4.6,0.8-9.4,1.1-14.3
						c1.1-15.6,1.8-32.3,1.9-50.5c0-4.7,0-9.5,0-14.4c-0.2-15.8-0.8-32.6-2.1-50.8c-0.1-1.6-0.2-3.2-0.3-4.9
						c-0.2-3.2-0.4-6.4-0.6-9.6c-0.8-16.6-0.6-33.6,0.3-50.6c0.3-4.8,0.6-9.6,0.9-14.3c1.3-17,3.2-33.9,5.4-50
						c0.6-4.8,1.3-9.6,2-14.2c2.7-17.7,5.5-34.4,8.1-49.3c0.9-4.9,1.7-9.6,2.5-14.1c1.8-10.1,3.3-19,4.5-26.6
						c-17.9-9.5-33.4-17.8-42-23.9c-2.4,3.8-16.2,24.8-34.5,26.4c-20,1.7-37.8-21.8-37.8-21.8v-4.5
						C480.1,716,467.5,723.1,452.9,731.1z"/>
					<g>
						<g>
							<path class="st11" d="M458.5,770.6c0.7,4.6,1.4,9.3,2.1,14.2c17.9,0.4,39-2.3,64.4-8.1c27.2-6.3,51.2-5.2,70.1-1.7
								c0.9-4.9,1.7-9.6,2.5-14.1c-20.5-3.8-46.4-4.9-75.8,1.9C496.8,768.6,475.9,771.3,458.5,770.6z"/>
						</g>
						<g>
							<path class="st11" d="M467.2,835.7c0.5,4.7,1,9.4,1.5,14.2c16.1-0.4,34.6-3.1,56.3-8.1c22.5-5.2,42.8-5.3,59.9-3.2
								c0.6-4.8,1.3-9.6,2-14.2c-18.5-2.3-40.6-2.1-65.2,3.6C500.8,832.7,482.7,835.4,467.2,835.7z"/>
						</g>
						<g>
							<path class="st11" d="M472.3,900.6c0.2,4.9,0.2,9.6,0.2,14.2c15.2-0.7,32.6-3.4,52.6-8c19.8-4.6,37.9-5.2,53.6-3.9
								c0.3-4.8,0.6-9.6,0.9-14.3c-16.9-1.4-36.4-0.6-57.7,4.3C503.1,897.2,486.6,899.8,472.3,900.6z"/>
						</g>
						<g>
							<path class="st11" d="M466.1,980c16.7-0.2,36.1-2.9,59-8.2c20-4.6,38.3-5.2,54.2-3.8c-0.1-1.6-0.2-3.2-0.3-4.9
								c-0.2-3.2-0.4-6.4-0.6-9.6c-16.6-1.2-35.6-0.4-56.4,4.4c-20.8,4.8-38.7,7.4-54.1,7.8C467.1,970.6,466.6,975.3,466.1,980z"/>
						</g>
						<g>
							<path class="st11" d="M462.9,1045c17.4,0.1,37.8-2.6,62.1-8.2c21-4.8,40-5.3,56.3-3.6c0-4.7,0-9.5,0-14.4
								c-17.3-1.6-37.4-0.9-59.5,4.2c-23,5.3-42.4,8-58.9,7.9C462.9,1035.7,462.9,1040.4,462.9,1045z"/>
						</g>
						<g>
							<path class="st11" d="M465.6,1095.9c0.4,4.8,0.9,9.5,1.4,14.2c16.5-0.3,35.6-3,58-8.1c19.7-4.5,37.7-5.2,53.3-3.9
								c0.4-4.6,0.8-9.4,1.1-14.3c-16.9-1.4-36.3-0.6-57.6,4.3C500.1,1093,481.4,1095.7,465.6,1095.9z"/>
						</g>
						<g>
							<path class="st11" d="M473.5,1160.6c0.6,4.7,1.3,9.4,1.9,14.1c14.5-0.9,30.9-3.5,49.6-7.8c16.8-3.9,32.3-4.9,46.2-4.4
								c0.6-4.7,1.1-9.4,1.7-14.2c-15.3-0.7-32.5,0.4-51.1,4.7C503.6,1157.3,487.6,1159.8,473.5,1160.6z"/>
						</g>
						<g>
							<path class="st11" d="M479.7,1225.2c0.1,4.6,0.2,9.3,0.2,14.2c13.4-1.1,28.3-3.6,45.1-7.5c14.8-3.4,28.6-4.6,41.2-4.5
								c0-4.8,0.1-9.5,0.4-14.3c-13.6-0.1-28.7,1.2-44.8,4.9C506.2,1221.7,492.3,1224.1,479.7,1225.2z"/>
						</g>
						<g>
							<path class="st11" d="M478.3,1304.6c13.8-1.1,29.2-3.6,46.8-7.6c16.5-3.8,31.8-4.9,45.6-4.3c-0.2-4.9-0.5-9.7-0.9-14.4
								c-14.5-0.4-30.6,0.9-47.9,4.8c-16,3.7-30.2,6.1-42.9,7.2C478.7,1295,478.5,1299.8,478.3,1304.6z"/>
						</g>
						<g>
							<path class="st11" d="M474.1,1370c14.8-0.8,31.6-3.5,50.9-7.9c16.4-3.8,31.6-4.9,45.3-4.4c0.2-4.8,0.4-9.5,0.5-14.3
								c-14.8-0.5-31.2,0.7-49,4.8c-17.5,4-33,6.6-46.6,7.5C474.9,1360.5,474.5,1365.2,474.1,1370z"/>
						</g>
						<g>
							<path class="st11" d="M468.6,1435.2c16.1-0.4,34.7-3.1,56.4-8.1c14.8-3.4,28.6-4.6,41.1-4.5c0.4-4.6,0.7-9.4,1.1-14.3
								c-13.8-0.2-29.1,1.1-45.4,4.9c-19.8,4.6-37,7.2-51.9,7.7C469.5,1425.8,469,1430.6,468.6,1435.2z"/>
						</g>
					</g>
				</g>
				<g>
					<g>
						<path class="st10" d="M581,1481.7c2.2-0.1,4.3-0.3,6.5-0.5c12.8-75.3,5.4-185.8,2.7-219.7c-2.8-35.2,2.6-80.4,15-124
							c9.6-33.9,3.7-112.5-1-175.7c-1.3-17.7-2.6-34.5-3.3-48.2c-2.4-44.5,13.7-126.8,22.6-168c-2-1-3.9-2.1-5.8-3.1
							c-8.9,40.8-25.6,125-23,171.5c0.8,13.8,2,30.6,3.4,48.4c4.7,62.7,10.5,140.6,1.2,173.5c-12.6,44.4-18.1,90.4-15.2,126.3
							C586.6,1295.9,594,1407.2,581,1481.7z"/>
					</g>
					<g>
						<path class="st10" d="M449.8,1175.3c7.5,46.3,5.2,76.4,2.4,111.2c-0.9,11.3-1.8,22.9-2.5,35.7c-2,40.3-8.8,121.4-11.8,156.5
							c2.1,0.2,4.2,0.5,6.3,0.7c3-35.1,9.9-116.4,11.9-156.9c0.6-12.7,1.5-24.3,2.4-35.5c2.8-35.2,5.2-65.6-2.5-112.7
							c-1.6-10.1-3.4-20.4-5.1-30.6c-8.5-50.5-17.3-102.6-13.2-127.6c1-6.1,2.3-13,3.7-20.4c5.7-30.2,12.7-67.7,10.5-100.3
							c-2.2-32.3-15.5-119.7-20.5-152.7c-2,1.1-3.9,2.1-5.9,3.2c5.3,34.5,18,118.5,20.1,149.9c2.2,31.8-4.8,68.9-10.4,98.7
							c-1.4,7.4-2.7,14.3-3.7,20.5c-4.3,26,4.2,76.4,13.2,129.8C446.4,1154.9,448.1,1165.2,449.8,1175.3z"/>
					</g>
				</g>
			</g>
			<g>
				<path class="st8" d="M325.3,853.4c0,0-64.4,214.9-80.4,291.4s-17.2,235.7-17.2,235.7s-28.2,58.5-28.8,84.5
					c-0.7,27.7,13.9,49.8,12.2,68c-1.7,18.2,20.4,8.3,14.2-28.5c-6.2-36.8,11.5-70.1,19.1-69c7.6,1.1-6.3,40.1,0.5,54.2
					c6.8,14.1,15.6-13.3,24.3-29.9c9.1-17.2,8.5-54.8,4.4-81.7c-4.1-26.8,44.5-189.9,44.8-237.1L380,932.8
					C380,932.8,359.6,845.9,325.3,853.4z"/>
				<path class="st3" d="M387.8,927.6c-2.2,13.8-9.8,37.5-19.7,67.3v0c-0.8,2.5-1.7,5.1-2.5,7.7c0,0.1-0.1,0.2-0.1,0.4
					c-2.5,7.4-5,15.2-7.7,23.2c0,0,0,0.1,0,0.1c-10.9,33.2-23,71.1-33.2,110.1c-3.5,13.3-6.8,26.8-9.6,40.3
					c-3.7,17.2-6.8,34.3-9.1,51c-8.2,60.3-24,136.7-24,136.7c-23.1,9.5-59.2-3-59.2-3s-0.9-110,4.2-152.8
					c6.4-52.9,14.5-90.5,24.5-133.7C279,956,327.7,839.7,341.1,808.9c1.1-2.5,1.9-4.4,2.5-5.7h11.5
					C377.7,817.5,393.7,890.4,387.8,927.6z"/>
				<path class="st2" d="M220.7,1339.4l1.8,25.3c0,0,34.3,11.2,60.1,3.3l6.8-22.6C264.6,1346.8,241.7,1346.2,220.7,1339.4z"/>
				<g>
					<path class="st10" d="M368.2,994.9L368.2,994.9c0,0.4-0.1,0.7-0.2,1.1c-0.8,2.1-1.6,4.3-2.4,6.6c0,0.1-0.1,0.2-0.1,0.4
						c-2.5,7.2-5.1,15-7.7,23.2c0,0,0,0.1,0,0.1c-13.5,42.8-27.1,96.6-33.4,130.9c0.1-6.9,0.1-13.9,0.3-20.8
						c-3.5,13.3-6.8,26.8-9.6,40.3c1.3-12.6,4.9-31.5,9.8-52.9c9.9-43.3,25.2-96.9,37.3-130c0.6-1.6,2.4-2.5,4.1-1.9
						C367.4,992.5,368.2,993.6,368.2,994.9z"/>
				</g>
			</g>
		</g>
		<g>
			<g>
				<g>
					<g>
						<path class="st4" d="M1520.7,1563.1h152.2c-0.5-10.6-1-20.7-1.5-30.2c-2.7-52.1-4.9-87.6-4.9-87.6l-123.8,5.5l-10.3,0.5
							l-18.2,0.8c0,0,1.8,31.7,4.5,78.2C1519.3,1540.6,1520,1551.6,1520.7,1563.1z"/>
					</g>
				</g>
				<path class="st5" d="M1532.4,1451.3l-18.2,0.8c0,0,1.8,31.7,4.5,78.2c47.6,4,99.5,5.6,152.7,2.6c-2.7-52.1-4.9-87.6-4.9-87.6
					l-123.8,5.5L1532.4,1451.3z"/>
				<g>
					<path class="st5" d="M1549,1563.1c-2.8-48.2-5.1-89.4-6.3-112.3l-10.3,0.5c1.2,22.8,3.5,63.8,6.3,111.9H1549z"/>
				</g>
			</g>
			<g>
				<g>
					<g>
						<path class="st4" d="M1476,1563.1c0.8-13.1,1.5-25.5,2.2-36.9c2.6-44.3,4.3-74.2,4.3-74.2l-19.8-0.9l-10.2-0.5l-122.3-5.4
							c0,0-1.3,21.1-3.2,54.8c-1,17.9-2.1,39.4-3.2,63.1H1476z"/>
					</g>
				</g>
				<path class="st5" d="M1327,1500.1c33.2,7.8,86.7,18.8,151.2,26.2c2.6-44.3,4.3-74.2,4.3-74.2l-19.8-0.9l-10.2-0.5l-122.3-5.4
					C1330.2,1445.3,1328.9,1466.4,1327,1500.1z"/>
				<g>
					<path class="st5" d="M1456.4,1563.1c2.8-48.1,5-89.2,6.3-111.9l-10.2-0.5c-1.3,22.9-3.5,64.1-6.3,112.4H1456.4z"/>
				</g>
			</g>
			<g>
				<g>
					<g>
						<path class="st3" d="M1688.6,1469c-31,8.5-62,15-93,19.3c-10.8,1.5-21.6,2.8-32.3,3.8c-14.5,1.3-29.1,2.3-43.6,2.7
							c-24,0.7-48,0.2-72.1-1.6c-46.4-3.4-92.9-11.5-139.3-24.2c-0.4-43.3,0.2-198.6,3.5-348.4c0.2-6.7,0.3-13.4,0.5-20.1
							c0-1.4,0.1-2.8,0.1-4.3c0-1.5,0.1-3.1,0.1-4.6c0.1-4.8,0.2-9.5,0.3-14.2c0.2-9.6,0.5-19.2,0.8-28.6c0.2-5.6,0.3-11.3,0.5-16.8
							c0-1.2,0.1-2.3,0.1-3.5c0.1-3.7,0.2-7.3,0.3-11c0,0,0,0,0,0c0-1.1,0.1-2.3,0.1-3.4c0.1-3.3,0.2-6.7,0.3-10
							c0.1-2.8,0.2-5.6,0.3-8.4c3.6-101,8.9-180.8,16.4-192c12.8-19.1,56.3-44.3,91.3-64.9c12.5-7.3,27.4-14.9,35.9-20.6
							c12.4,10,21.4,19,39.9,18.4c20.6-0.7,25.7-13.1,33.5-23.7c4.8,3.1,17,13.1,23.3,16.8c5.4,3.2,11.3,6.6,17.4,10.1
							c9.5,5.4,19.5,11.2,29.5,17c14.8,8.7,29.3,17.7,41.4,26.2c12.1,8.6,21.6,16.8,26.4,23.9c6.8,10.3,11.3,76.7,14.1,164.2
							c0.1,3.1,0.2,6.2,0.3,9.3c0,0.4,0,0.8,0,1.1c0.1,3.2,0.2,6.4,0.3,9.7c0.3,9.8,0.5,19.9,0.8,30.1c0.1,2.2,0.1,4.3,0.1,6.5
							c0,1.6,0.1,3.3,0.1,4.9c0.1,4.2,0.2,8.4,0.3,12.7c0,0.9,0,1.7,0.1,2.6c0.2,11.2,0.5,22.6,0.7,34.1c0.1,3.4,0.1,6.7,0.2,10.1
							C1689.8,1249.9,1689.2,1422.5,1688.6,1469z"/>
					</g>
				</g>
				<path class="st10" d="M1687.2,1092.4l-49.1,49.8l-45.7-46.4l-45.7,46.4l-45.9-46.6l-45.9,46.6l-46.2-46.9l-46.2,46.9l-49.9-50.6
					c0.1-4.8,0.2-9.5,0.3-14.2c0.2-9.6,0.5-19.2,0.8-28.6l48.8-49.5l46.2,46.9l46.2-46.9l45.9,46.6l45.9-46.6l45.7,46.4l45.7-46.4
					l48.3,48.9c0.2,11.2,0.5,22.6,0.7,34.1C1687,1085.7,1687.1,1089,1687.2,1092.4z"/>
				<g>
					<path class="st10" d="M1602.4,1349.1C1602.4,1349.1,1602.4,1349.1,1602.4,1349.1c-65.7-0.3-121.9-30.2-157.3-55.2
						c-38.4-27.1-61.6-54.5-61.9-54.8c-1.1-1.3-1-3.3,0.4-4.5c1.3-1.1,3.3-1,4.5,0.4c0.2,0.3,23.1,27.2,60.8,53.8
						c34.7,24.5,89.5,53.7,153.6,54c1.7,0,3.2,1.4,3.1,3.2C1605.6,1347.7,1604.2,1349.1,1602.4,1349.1z"/>
				</g>
				<g>
					<path class="st10" d="M1561.4,1310.2c-56-11-105.5-53.9-107.8-55.8c-1.3-1.2-1.4-3.1-0.3-4.5c1.2-1.3,3.1-1.4,4.5-0.3
						c0.6,0.5,58.9,50.9,118.3,56.3c1.8,0.1,3,1.7,2.9,3.4c-0.2,1.7-1.7,3-3.4,2.9C1570.8,1311.8,1566.1,1311.1,1561.4,1310.2z"/>
				</g>
				<g>
					<path class="st10" d="M1449.3,823.7c-1.5,0-2.8-1.1-3.1-2.6c-0.3-1.7,0.8-3.4,2.5-3.7c80.1-15.2,104.3-66.8,104.5-67.3
						c0.7-1.6,2.6-2.3,4.2-1.6c1.6,0.7,2.3,2.6,1.6,4.2c-1,2.2-25.8,55.1-109.1,70.9C1449.7,823.7,1449.5,823.7,1449.3,823.7z"/>
				</g>
				<g>
					<path class="st10" d="M1351.5,962.5L1351.5,962.5c-0.1,0.4-0.2,0.7-0.4,1c-1.2,1.9-2.5,3.9-3.7,5.9c-0.1,0.1-0.1,0.2-0.2,0.3
						c-4,6.5-8.2,13.6-12.5,21c0,0.1,0,0.1-0.1,0.1c-6.7,11.8-13.7,24.5-20.5,37.5c0.1-3.7,0.2-7.3,0.3-11c0,0,0,0,0,0
						c0-1.1,0.1-2.3,0.1-3.4c11-20.4,22-39.5,31.1-54c0.9-1.5,2.9-1.9,4.4-1C1351.3,959.9,1351.8,961.3,1351.5,962.5z"/>
				</g>
			</g>
			<g>
				<path class="st8" d="M1755.4,845.3c0,0,102.5-32.9,132.8-100.2c8.8-19.5-63.5-217.2-63.5-217.2l-34.9,1.7c0,0,9.9,68.6,16,107.5
					c5,31.9,13,70.1,15.7,82.7c0.6,2.7,0.9,4.2,0.9,4.2c-1.7,0.3-3.4,0.6-5.2,1c-47.9,9.7-109,40.9-109,40.9L1755.4,845.3z"/>
				<g>
					<g>
						<path class="st6" d="M1848.1,742.9c1.5,1.1,3.5,0.7,4.6-0.7c1.1-1.5,0.8-3.5-0.7-4.6c-7.5-5.4-18.7-11.8-30.5-17.9
							c0.6,2.7,0.9,4.2,0.9,4.2c-1.7,0.3-3.4,0.6-5.2,1C1829.2,731.1,1840.7,737.5,1848.1,742.9z"/>
					</g>
				</g>
				<path class="st3" d="M1598.6,754.8c0,0-31,72.7,47.9,113.2c54.6,28,179-45.2,179-45.2l-44.4-94.2
					C1781.2,728.8,1667.3,775.7,1598.6,754.8z"/>
				<path class="st8" d="M1806.8,416.7c-3.1,2.2-2.5,15.5-1.1,28.1c-0.4,0.1-0.9,0.1-1.3,0.2c-3.7-16.8-11-45.4-17.2-39.9
					c-4.1,3.6,1.4,28.2,5.1,42.9c-0.8,0.2-1.5,0.5-2.3,0.7c-4.7-17.5-14.8-51.2-21.6-44.6c-4.5,4.4,4.1,34,8.9,49.2
					c-0.7,0.3-1.3,0.5-2,0.8c-4.6-14.7-14.4-42.4-21.1-35.9c-6.1,5.9,11.3,47.9,11.3,47.9l0,0l4.6,16.5c0,0-5.4,2.3-13.9-7.2
					c-8.5-9.6-18.6-11.3-11.6,2.6c8,15.7,19.7,26.9,24.9,38c5.2,11.1,21.5,14.8,21.5,14.8l32.8-1.6c0,0,6.4-55.4-5.9-81.7l0,0
					C1815.9,431.7,1812.2,412.9,1806.8,416.7z"/>
			</g>
			<g>
				<path class="st4" d="M1401.6,544.4c0,55.8,34.3,94.2,90.1,94.2c55.8,0,94.7-41.3,94.7-97.1c0-15.4-2.5-29.8-7.3-42.5
					c-0.3-0.8-0.6-1.5-0.9-2.2c-0.6-1.4-1.2-2.9-1.9-4.3c-1-2.2-2.1-4.3-3.2-6.3c-14.5-26.1-40.6-42.7-75.5-42.7
					C1430.7,443.5,1401.6,488.6,1401.6,544.4z"/>
				<g>
					<path class="st6" d="M1414.1,568.4c0,0-15.5-20.7-27-3.6c-11.5,17.1,4.8,67.6,33,55.2L1414.1,568.4z"/>
					<g>
						<path class="st7" d="M1413.9,604.5c-1,0-2-0.7-2.3-1.7c-4.4-15.6-20.5-21.9-20.7-22c-1.2-0.5-1.8-1.8-1.4-3.1
							c0.5-1.2,1.8-1.9,3.1-1.4c0.8,0.3,18.5,7.2,23.6,25.1c0.4,1.3-0.4,2.6-1.7,2.9C1414.4,604.4,1414.2,604.5,1413.9,604.5z"/>
					</g>
					<g>
						<path class="st7" d="M1397.7,596.6c-0.4,0-0.9-0.1-1.3-0.4c-1.1-0.7-1.4-2.2-0.7-3.3c0.1-0.2,3-4.5,8.9-7.2
							c1.2-0.5,2.6,0,3.1,1.2c0.5,1.2,0,2.6-1.2,3.1c-4.6,2.1-6.9,5.4-6.9,5.4C1399.2,596.2,1398.4,596.6,1397.7,596.6z"/>
					</g>
				</g>
				<g>
					<path class="st6" d="M1573.9,568.4c0,0,15.5-20.7,27-3.6c11.5,17.1-4.8,67.6-33,55.2L1573.9,568.4z"/>
					<g>
						<path class="st7" d="M1574.1,604.5c1,0,2-0.7,2.3-1.7c4.4-15.6,20.5-21.9,20.7-22c1.2-0.5,1.8-1.8,1.4-3.1
							c-0.5-1.2-1.8-1.9-3.1-1.4c-0.8,0.3-18.5,7.2-23.6,25.1c-0.4,1.3,0.4,2.6,1.7,2.9C1573.6,604.4,1573.8,604.5,1574.1,604.5z"/>
					</g>
					<g>
						<g>
							<g>
								<path class="st7" d="M1590.4,596.6c0.4,0,0.9-0.1,1.3-0.4c1.1-0.7,1.4-2.2,0.7-3.3c-0.1-0.2-3-4.5-8.9-7.2
									c-1.2-0.5-2.6,0-3.1,1.2c-0.5,1.2,0,2.6,1.2,3.1c4.6,2.1,6.9,5.4,6.9,5.4C1588.8,596.2,1589.6,596.6,1590.4,596.6z"/>
							</g>
						</g>
					</g>
				</g>
				<path class="st8" d="M1532.2,662.9V713c0,0-15,25.6-35.2,27.3c-20.2,1.8-38.2-22-38.2-22v-52L1532.2,662.9z"/>
				<path class="st6" d="M1532.2,662.9v22.3c-13.6,15.1-37.7,18.8-73.4,13.6v-32.3L1532.2,662.9z"/>
				<path class="st8" d="M1585.1,534c-0.9,19.5-2.8,43.9-6.5,63.4c-0.9,4.9-2,9.4-3.1,13.5c-10.6,37-37,100.4-110.9,74
					c-32.7-11.7-47.8-48-54.6-85c-4.6-25.1-5.3-50.5-4.9-68.7c0.4-18.5,10.5-35.5,26.6-44.6c43.7-24.7,89.7-15.5,120-3.9
					C1572.7,490.8,1586.1,511.5,1585.1,534z"/>
				<ellipse class="st4" cx="1456.1" cy="574.9" rx="6.2" ry="9.7"/>
				<ellipse class="st4" cx="1528.8" cy="574.7" rx="6.2" ry="9.7"/>
				<path class="st4" d="M1548.9,541.4c0,0-19.5-7.7-34.4-1.2l1.5,8.3c0,0,22-1.9,33.1,2.6C1550,547.9,1550.2,544.7,1548.9,541.4z"
					/>
				<path class="st4" d="M1435.5,541.4c0,0,19.5-7.7,34.4-1.2l-1.5,8.3c0,0-22-1.9-33.1,2.6C1434.4,547.9,1434.3,544.7,1435.5,541.4
					z"/>
				<g>
					<path class="st6" d="M1494.8,615.6c4,0,8-1.6,8.6-1.8c1.2-0.5,1.8-1.9,1.3-3.1c-0.5-1.2-1.9-1.8-3.1-1.3
						c-2.2,0.9-7.3,2.2-9.6,0.9c-0.4-0.3-1-0.8-1.2-2.2c-0.9-8.3,1.4-36.2,1.4-36.5c0.1-1.3-0.9-2.5-2.2-2.6
						c-1.3-0.1-2.5,0.9-2.6,2.2c-0.1,1.2-2.3,28.6-1.4,37.4c0.3,3.3,2.1,5,3.5,5.8C1491.2,615.3,1493,615.6,1494.8,615.6z"/>
				</g>
				<path class="st9" d="M1462.8,627.7c4,13.8,15.2,27.5,30.8,27.7c15.5-0.2,26.8-13.9,30.7-27.7H1462.8z"/>
				<g>
					<path class="st6" d="M1492.2,670.3c6.2,0,11.4-3.1,11.6-3.3c1.1-0.7,1.5-2.1,0.8-3.3c-0.7-1.1-2.1-1.5-3.3-0.8
						c0,0-4.3,2.6-9.2,2.6c-4.4,0-8.6-2.5-8.7-2.6c-1.1-0.7-2.6-0.3-3.3,0.8c-0.7,1.1-0.3,2.6,0.8,3.3
						C1481.3,667.2,1486.4,670.3,1492.2,670.3z"/>
				</g>
				<path class="st4" d="M1582.5,568.8h-10.8c1.2-10.8,2.9-30-6-32.7c-28.2-8.6,8.3-28.5-4.4-38.5c-12.7-9.9-44.3-5.7-66.3-6.4
					c-22.1-0.7-57.7-0.4-66.3,1.6c-8.7,2-3.9,16.3-0.7,27.5c3.2,11.1-10.6,23.4-12.9,34.9c-0.7,3.3-0.5,8.2,0,13.5h-9
					c-1.1-14-1.2-27.1-1-37.6c0.4-18.5,10.5-35.5,26.6-44.6c43.7-24.7,89.7-15.5,120-3.9c21.1,8.1,34.5,28.8,33.5,51.2
					C1584.6,544.6,1583.8,556.8,1582.5,568.8z"/>
				<g>
					<g>
						<path class="st9" d="M1455,603c-14.9,0-27-12.1-27-27c0-14.9,12.1-27,27-27c14.9,0,27,12.1,27,27
							C1482,590.9,1469.9,603,1455,603z M1455,553.3c-12.6,0-22.8,10.2-22.8,22.8c0,12.6,10.2,22.8,22.8,22.8
							c12.6,0,22.8-10.2,22.8-22.8C1477.8,563.5,1467.6,553.3,1455,553.3z"/>
					</g>
					<g>
						<path class="st9" d="M1528.8,603c-14.9,0-27-12.1-27-27c0-14.9,12.1-27,27-27c14.9,0,27,12.1,27,27
							C1555.8,590.9,1543.7,603,1528.8,603z M1528.8,553.3c-12.6,0-22.8,10.2-22.8,22.8c0,12.6,10.2,22.8,22.8,22.8
							c12.6,0,22.8-10.2,22.8-22.8C1551.6,563.5,1541.4,553.3,1528.8,553.3z"/>
					</g>
					<g>
						<path class="st9" d="M1432.6,567.3c-0.5,0-1.1-0.2-1.5-0.6l0,0c-0.1-0.1-12.4-12-28.5-8.3c-1.1,0.3-2.3-0.4-2.5-1.6
							c-0.3-1.1,0.4-2.3,1.6-2.5c18.4-4.3,31.8,8.8,32.4,9.4c0.8,0.8,0.8,2.2,0,3C1433.7,567.1,1433.1,567.3,1432.6,567.3z"/>
					</g>
					<g>
						<path class="st9" d="M1551.7,567.3c-0.7,0-1.4-0.3-1.8-1c-0.6-1-0.4-2.3,0.6-2.9c0.8-0.5,19.9-12.8,36.2-10.2
							c1.1,0.2,1.9,1.3,1.7,2.4c-0.2,1.1-1.3,1.9-2.4,1.7c-14.6-2.4-33,9.4-33.2,9.5C1552.5,567.2,1552.1,567.3,1551.7,567.3z"/>
					</g>
					<g>
						<path class="st9" d="M1503.3,570c0-0.1-5-6.8-11.6-6.8c-6.5,0-11,6.7-11.1,6.8l-3.5-2.3c0.2-0.4,5.8-8.7,14.6-8.7
							c8.7,0,14.8,8.2,15,8.6L1503.3,570z"/>
					</g>
				</g>
			</g>
			<g>
				<path class="st8" d="M1342.6,958.6c0,0-28.4,55.1-61.9,98.7c-9.9,12.9-20.2,24.7-30.3,33.9c-16.5,14.9-32.5,22.6-45.6,16
					c-48.5-24.4-156.6-219-156.6-219l26.6-31.6c0,0,48.1,55.6,83.3,88.8c32.5,30.7,57.4,53.6,57.4,53.6c4.5-6.8,9.3-14.3,14.3-22.3
					c5.3-8.4,10.8-17.3,16.4-26.5c40.5-66.5,85.5-146.4,85.5-146.4L1342.6,958.6z"/>
				<path class="st6" d="M1280.7,1057.2c-9.9,12.9-20.2,24.7-30.3,33.9l-20.6-114.4c5.3-8.4,10.8-17.3,16.4-26.5L1280.7,1057.2z"/>
				<path class="st3" d="M1331.6,803.9l-97.2,152.8l32.6,134.4l80.4-130.9C1347.5,960.2,1357.2,870.6,1331.6,803.9z"/>
			</g>
		</g>
		<g>
			<g>
				<path class="st3" d="M1209.4,1563.1c-6.9-38.5-13.8-81.8-20-124c-1.4-9.3-2.7-18.6-4-27.7c-5-34.9-9.4-67.9-13-95.2
					c-1.4-10.4-2.6-20-3.7-28.6c-3.5-27.3-5.5-44.3-5.5-44.3l-153.5,5.8l-153.9-5.8c0,0-4,33.6-10.3,82.3c-1.2,8.9-2.4,18.2-3.7,28
					c-3.4,25.5-7.3,53.8-11.5,82.7c-0.1,0.4-0.1,0.8-0.2,1.3c-1.3,9-2.6,18.1-4,27.1c0,0.1,0,0.2-0.1,0.4v0
					c-3.3,21.9-6.7,43.8-10.3,64.8c-1.4,8.7-2.9,17.2-4.4,25.5c-0.5,2.6-0.9,5.2-1.4,7.7H1209.4z"/>
				<g>
					<circle class="st10" cx="876.7" cy="1289.5" r="14.5"/>
					<circle class="st10" cx="912.6" cy="1345.5" r="14.5"/>
					<circle class="st10" cx="983.2" cy="1316.6" r="14.5"/>
					<circle class="st10" cx="871.8" cy="1405" r="14.5"/>
					<circle class="st10" cx="960" cy="1398.9" r="14.5"/>
					<path class="st10" d="M854.9,1339.2c0,7.5-5.7,13.7-13.1,14.4c1.3-9.8,2.5-19.1,3.7-28C851,1327.7,854.9,1333,854.9,1339.2z"/>
					<circle class="st10" cx="1103.8" cy="1483.8" r="14.5"/>
					<circle class="st10" cx="1097" cy="1405" r="14.5"/>
					<path class="st10" d="M1189.4,1439.1c-1.7,0.7-3.7,1.1-5.7,1.1c-8,0-14.5-6.5-14.5-14.5c0-8,6.5-14.5,14.5-14.5
						c0.6,0,1.1,0,1.7,0.1C1186.7,1420.6,1188.1,1429.8,1189.4,1439.1z"/>
					<circle class="st10" cx="1111.4" cy="1541.6" r="14.5"/>
					<circle class="st10" cx="1173.3" cy="1518.5" r="14.5"/>
					<path class="st10" d="M1059,1563.1c-2.6-3.8-7-6.3-11.9-6.3s-9.3,2.5-11.9,6.3H1059z"/>
					<circle class="st10" cx="862.3" cy="1496.4" r="14.5"/>
					<path class="st10" d="M838.6,1450.7c0,7.3-5.5,13.4-12.6,14.3c0-0.1,0-0.2,0.1-0.4c1.4-9.1,2.7-18.1,4-27.1
						C835.1,1439.8,838.6,1444.9,838.6,1450.7z"/>
					<path class="st10" d="M821.6,1541.6c0,6.5-4.3,12.1-10.3,13.9c1.5-8.3,2.9-16.8,4.4-25.5
						C819.3,1532.5,821.6,1536.8,821.6,1541.6z"/>
					<circle class="st10" cx="898.1" cy="1547.7" r="14.5"/>
					<circle class="st10" cx="974.5" cy="1536.4" r="14.5"/>
					<circle class="st10" cx="920" cy="1465.2" r="14.5"/>
					<circle class="st10" cx="997.7" cy="1450.8" r="14.5"/>
					<circle class="st10" cx="1032.6" cy="1374.5" r="14.5"/>
					<path class="st10" d="M1172.4,1316.3c-1,0.2-2,0.3-3.1,0.3c-8,0-14.5-6.5-14.5-14.5c0-7.8,6.1-14.1,13.9-14.4
						C1169.8,1296.3,1171,1305.9,1172.4,1316.3z"/>
					<circle class="st10" cx="1082.5" cy="1316.6" r="14.5"/>
					<circle class="st10" cx="1135.5" cy="1368.1" r="14.5"/>
					<circle class="st10" cx="1047.1" cy="1496.4" r="14.5"/>
				</g>
				<path class="st2" d="M1172.5,1247.2c-81,52.9-229.6,48.7-323,0c8.9-55.6,20.7-111.2,18.1-185.2c-0.3-8.1-0.6-16.2-1-24.2
					c-0.4-6.9-0.8-13.8-1.2-20.7c-8.1-123.1-29.1-223.7-18.7-236.7c4.5-5.7,12-11.8,21.3-18.1c3.6-2.5,7.5-5,11.6-7.5
					c9.7-5.9,20.5-11.9,31.3-17.7c25.7-13.7,51.7-26.4,64.8-35.1c13,5.6,23.3,8.7,34.4,8.7c0.3,0,0.6,0,1,0c0.3,0,0.6,0,0.9,0
					c11.1,0.1,21.4-3,34.4-8.7c12.1,8.1,34.9,19.3,58.2,31.6c17.1,9,34.5,18.6,48,27.9c8.8,6.1,16.1,12,20.5,17.6
					c5.1,6.4,3,34.7-1.4,76.6c-4.3,41.2-10.8,95.6-14.7,155.4c-1.1,16.6-2,33.6-2.6,50.9C1151.9,1136,1163.6,1191.6,1172.5,1247.2z"
					/>
				<g>
					<path class="st3" d="M1123,1185.7C1123,1185.7,1123,1185.7,1123,1185.7c-65.2-0.3-120.8-30-156-54.8
						c-38.1-26.9-61.1-54.1-61.4-54.3c-1.1-1.3-0.9-3.3,0.4-4.4c1.3-1.1,3.3-0.9,4.4,0.4c0.2,0.3,22.9,27,60.3,53.4
						c34.4,24.3,88.8,53.3,152.3,53.5c1.7,0,3.1,1.4,3.1,3.2C1126.1,1184.3,1124.7,1185.7,1123,1185.7z"/>
				</g>
				<g>
					<path class="st3" d="M1079.9,1147.8c-55.5-10.9-104.6-53.4-106.9-55.4c-1.3-1.1-1.4-3.1-0.3-4.4c1.1-1.3,3.1-1.4,4.4-0.3
						c0.6,0.5,58.4,50.5,117.3,55.9c1.8,0.1,3,1.7,2.8,3.4c-0.2,1.7-1.7,3-3.4,2.8C1089.2,1149.4,1084.5,1148.7,1079.9,1147.8z"/>
				</g>
				<g>
					<path class="st3" d="M997.7,860.6c-1.5,0-2.8-1-3.1-2.6c-0.3-1.7,0.8-3.3,2.5-3.7c79.5-15.1,103.4-66.2,103.7-66.7
						c0.7-1.6,2.6-2.3,4.2-1.6c1.6,0.7,2.3,2.6,1.6,4.1c-1,2.2-25.6,54.6-108.2,70.3C998.1,860.6,997.9,860.6,997.7,860.6z"/>
				</g>
				<path class="st8" d="M1104.6,733.6c-15.8,36-54.6,73.2-105,64.5c-48.8-8.4-72-34.3-88.7-61c25.7-13.7,51.7-26.4,64.8-35.1
					c13,5.6,23.3,8.7,34.4,8.7c0.3,0,0.6,0,1,0c0.3,0,0.6,0,0.9,0c11.1,0.1,21.4-3,34.4-8.7C1058.5,710.1,1081.3,721.4,1104.6,733.6
					z"/>
				<g>
					<path class="st9" d="M1062.4,704.7c-1.4,0-2.5,1.1-2.5,2.5c0,2-0.8,49.6-43.5,53.3c-39.6,3.4-56-34.5-61.1-50.2
						c-0.3-0.9-1.2-1.5-2.1-1.5h-0.5c-1.5,0-2.6,1.5-2.1,2.9c5.4,16.2,22.7,55.4,63,54c1,0,2.1-0.1,3.2-0.2
						c47.3-4.1,48.1-57.7,48.1-58.2C1064.9,705.8,1063.8,704.7,1062.4,704.7z"/>
				</g>
			</g>
			<g>
				<path class="st4" d="M1092.6,451.9c0,0,38.2,59.1,34,120.7c-4.2,61.6,5.6,132.6-49.5,129.5c-55.1-3.1-153.4,22.1-184.6-25.9
					C861.3,628.3,1092.6,451.9,1092.6,451.9z"/>
				<path class="st5" d="M1106.8,560.6c0,0,9.9,89.2-32.4,113.8c-42.3,24.6-73-2.9-73-2.9S1090.6,547.1,1106.8,560.6z"/>
				<g>
					<g>
						<path class="st6" d="M930.9,560.1c0,0-15.2-20.3-26.5-3.5c-11.3,16.8,4.7,66.3,32.4,54.2L930.9,560.1z"/>
						<g>
							<path class="st7" d="M930.7,595.5c-1,0-2-0.7-2.3-1.7c-4.3-15.3-20.1-21.5-20.3-21.5c-1.2-0.5-1.8-1.8-1.4-3
								c0.5-1.2,1.8-1.8,3-1.4c0.7,0.3,18.2,7.1,23.1,24.7c0.3,1.2-0.4,2.5-1.6,2.9C931.1,595.5,930.9,595.5,930.7,595.5z"/>
						</g>
						<g>
							<path class="st7" d="M914.7,587.8c-0.4,0-0.9-0.1-1.3-0.4c-1.1-0.7-1.4-2.1-0.7-3.2c0.1-0.2,2.9-4.5,8.8-7.1
								c1.2-0.5,2.6,0,3.1,1.2c0.5,1.2,0,2.6-1.2,3.1c-4.5,2-6.7,5.3-6.8,5.3C916.2,587.5,915.5,587.8,914.7,587.8z"/>
						</g>
					</g>
					<g>
						<path class="st6" d="M1087.6,560.1c0,0,15.2-20.3,26.5-3.5c11.3,16.8-4.7,66.3-32.4,54.2L1087.6,560.1z"/>
						<g>
							<path class="st7" d="M1087.8,595.5c1,0,2-0.7,2.3-1.7c4.3-15.3,20.1-21.5,20.3-21.5c1.2-0.5,1.8-1.8,1.4-3
								c-0.5-1.2-1.8-1.8-3-1.4c-0.7,0.3-18.2,7.1-23.1,24.7c-0.3,1.2,0.4,2.5,1.6,2.9C1087.3,595.5,1087.6,595.5,1087.8,595.5z"/>
						</g>
						<g>
							<path class="st7" d="M1103.7,587.8c0.4,0,0.9-0.1,1.3-0.4c1.1-0.7,1.4-2.1,0.7-3.2c-0.1-0.2-2.9-4.5-8.8-7.1
								c-1.2-0.5-2.6,0-3.1,1.2c-0.5,1.2,0,2.6,1.2,3.1c4.5,2,6.7,5.3,6.8,5.3C1102.2,587.5,1103,587.8,1103.7,587.8z"/>
						</g>
					</g>
					<path class="st8" d="M1046.6,652.8v49.2c0,0-14.7,25.1-34.5,26.8c-19.8,1.7-37.5-21.6-37.5-21.6v-51L1046.6,652.8z"/>
					<path class="st6" d="M1046.6,652.8v21.8c-13.3,14.8-37,20-72,14.9l0-33.2L1046.6,652.8z"/>
					<path class="st8" d="M1098.6,526.4c-0.9,19.1-2.7,43.1-6.4,62.2c-0.9,4.8-1.9,9.3-3.1,13.3c-10.4,36.3-36.3,98.5-108.8,72.6
						c-32-11.4-46.9-47.1-53.5-83.4c-4.5-24.7-5.2-49.6-4.8-67.4c0.4-18.2,10.3-34.8,26.1-43.7c42.8-24.3,88-15.2,117.8-3.8
						C1086.4,484,1099.6,504.3,1098.6,526.4z"/>
					<ellipse class="st4" cx="971.2" cy="563" rx="6.1" ry="9.5"/>
					<ellipse class="st4" cx="1045.9" cy="563" rx="6.1" ry="9.5"/>
					<path class="st4" d="M959.2,534.7c5-1.4,15.2-3.8,25.9-3.9c2.8,0,5,2.5,4.5,5.3l0,0.1c-0.4,2.2-2.4,3.8-4.6,3.7
						c-7.3-0.3-26.4,0.7-35.4,4.3c-0.2-1.6,0.7-3.3,2.1-4.8C953.6,537.1,956.3,535.5,959.2,534.7z"/>
					<path class="st4" d="M1057,534.9c-5-1.4-15.2-3.8-25.9-3.9c-2.8,0-5,2.5-4.5,5.3l0,0.1c0.4,2.2,2.4,3.8,4.6,3.7
						c7.3-0.3,26.4,0.7,35.4,4.3c0.2-1.6-0.7-3.3-2.1-4.8C1062.7,537.3,1059.9,535.7,1057,534.9z"/>
					<g>
						<path class="st6" d="M1010,606.5c-1.8,0-3.6-0.3-5.1-1.2c-1.4-0.8-3.1-2.5-3.4-5.7c-0.9-8.6,1.3-35.5,1.4-36.7
							c0.1-1.3,1.2-2.2,2.5-2.1c1.3,0.1,2.2,1.2,2.1,2.5c0,0.3-2.3,27.7-1.4,35.8c0.1,1.4,0.7,1.9,1.1,2.2c2.2,1.3,7.3,0,9.4-0.9
							c1.2-0.5,2.6,0.1,3,1.3c0.5,1.2-0.1,2.6-1.3,3C1017.9,604.9,1014,606.5,1010,606.5z"/>
					</g>
					<path class="st9" d="M980.3,621.2c1.8,8.9,7.6,25.3,27.4,25.3c19.8,0,25.4-15,27.3-25.3H980.3z"/>
					<g>
						<path class="st6" d="M1007.5,660.2c-5.7,0-10.8-3.1-11-3.2c-1.1-0.7-1.4-2.1-0.8-3.2c0.7-1.1,2.1-1.4,3.2-0.8l0,0
							c0,0,4.2,2.5,8.5,2.5c4.7,0,8.9-2.5,9-2.5c1.1-0.7,2.5-0.3,3.2,0.8c0.7,1.1,0.3,2.5-0.8,3.2
							C1018.7,657.1,1013.5,660.2,1007.5,660.2z"/>
					</g>
				</g>
				<path class="st4" d="M1108,522.6c-0.8,2.1-2.8,3.5-5.6,4.3c0.2,5.2-0.3,11.4-0.8,17.3c-2.9,33.8-11.4,39.7-13.3,31.4
					c-1.3-5.6-1.2-37.4-0.6-47.8c-6.7-0.4-12.4-1.6-12.4-1.6l-7.8-32.8l-2.7,32.4c-11.8,4.1-39.2-2.5-39.2-2.5l-9.2-32.4l-5.7,31.1
					c-17.6,8.6-39.7,2.9-39.7,2.9l-5.1-33.6L954,525c0,0-37.6,13.5-38,0c-0.3-7.9,5.5-30,10.4-47.1c5.3-18.7,17.6-34.5,34.2-43.4
					c46.7-25.1,96.1-11.7,113-1.6C1109.5,454.3,1108,522.6,1108,522.6z"/>
				<path class="st4" d="M936.7,454.4c0,0-31,36.9-41.2,102.7c-10.2,65.8-24.3,114.5,15.4,136.2c42.9,23.5,39.2-24.7,38.6-37.8
					c-0.6-13.1-37.1-49-12.8-149.9C944.6,472.9,936.7,454.4,936.7,454.4z"/>
				<path class="st5" d="M929.5,590.4C929.5,590.4,929.5,590.4,929.5,590.4c0,0.6,0,3.2,0.2,7.3c0.1,2.5,0.3,5.6,0.5,9.1
					c1.5,22.2,5.8,60.5,18.4,73.8c5,5.3,14.6,7.9,26,9v-17.4c-12-5.7-21.3-15-28.5-26.5c-4.5-9.7-12.2-24.8-15.8-48.6L929.5,590.4z"
					/>
				<circle class="st9" cx="1093.6" cy="611.9" r="5.5"/>
			</g>
			<g>
				<path class="st2" d="M1210.8,1024.8c-15.5,44.4-85,41.2-164.2,16.9c-0.1,0-0.2-0.1-0.3-0.1c-0.2-0.1-0.5-0.2-0.7-0.2l-10.9-3.5
					c-1.5-0.5-3-1-4.5-1.5c-8.5-2.9-17.1-5.9-25.8-9.2c-28.3-10.7-56.8-23.5-83.7-37.1l0.2-0.5l8.1-21l2.8-7.2
					c0,0,146.8,16,220.6,0.6c1.3-0.3,2.5-0.5,3.7-0.8c-0.3-1.6-0.4-3.3-0.8-4.9c-39.1-133.1,3.7-158.7,18-177.2
					C1173.1,779.1,1240.1,940.9,1210.8,1024.8z"/>
				<g>
					<path class="st3" d="M1186.9,983.6c-0.4,0.2-0.9,0.3-1.4,0.3c-1.2,0-2.3-0.6-2.8-1.8c-5.6-11.5-24.6-18.3-30.4-20.1
						c1.3-0.3,2.5-0.5,3.7-0.8c-0.3-1.6-0.6-3.3-0.8-4.9c7.4,2.5,26.8,9.9,33.2,23.1C1189.1,981,1188.4,982.8,1186.9,983.6z"/>
				</g>
				<g>
					<path class="st3" d="M981.3,978c-30,0-54.3-1.7-56.4-1.9c-1.7-0.1-3-1.6-2.9-3.3c0.1-1.7,1.6-3,3.3-2.9
						c1.1,0.1,111.2,7.9,154.6-9.7c1.6-0.6,3.4,0.1,4.1,1.7c0.6,1.6-0.1,3.4-1.7,4.1C1058.3,975.7,1016,978,981.3,978z"/>
				</g>
				<g>
					<path class="st3" d="M1034.6,1037.9C1034.6,1037.9,1034.6,1037.9,1034.6,1037.9c25.1-6.9,48-13.7,61.2-17.9
						c18.3-5.9,33.5-24.4,40.3-40.1c0.7-1.6,2.5-2.3,4.1-1.6c1.6,0.7,2.3,2.5,1.6,4.1c-7.4,17-24,37.1-44.2,43.6
						c-9.6,3.1-24.2,7.4-41.1,12.3C1049.4,1040.3,1041.7,1040.2,1034.6,1037.9L1034.6,1037.9z"/>
				</g>
				<g>
					<path class="st2" d="M1102.3,1016.4c-226.9,76.4-296.7,26.4-296.7,26.4c-15.3-138.1,41-262.3,41-262.3
						c16.6,27.4,35.4,75.3,35.4,75.3l5,105.9l-0.4,2.9l-0.2,1.4l-0.9,7.2l0,0.1c0.5,0.1,1,0.2,1.5,0.3
						c68.6,14.5,194.1-1.7,194.1-1.7L1102.3,1016.4z"/>
					<g>
						<path class="st3" d="M887,973.6c-12.2,10.3-23.9,22.1-34.2,35.7c-1,1.4-3,1.6-4.4,0.6c-1.4-1-1.6-3-0.6-4.4c0,0,0,0,0,0
							c11.7-15.3,24.9-28.4,38.7-39.6l-0.9,7.2l0,0.1C886,973.4,886.5,973.5,887,973.6z"/>
					</g>
					<path class="st8" d="M1081.1,971.9c0,0,25.1-57.1,63.3-52l11.5,41.3c-20.9,8.9-24,44.7-53.6,55.2L1081.1,971.9z"/>
				</g>
				<path class="st8" d="M931.7,961.5c0,0-15.9-37.2-57.6-48c-41.7-10.8-68.3,8.9-71.1,16.3c-2.8,7.4,15.7,0.3,15.7,0.3
					s-12.1,3.4-19,14.8c-6.9,11.4,16.9-0.9,16.9-0.9s-17.1,7.5-19.2,14.4c-2.2,6.9,20.3-4.8,24.6-4.6c0,0-20.1,8-20,15.1
					c0.1,7.2,23.1-4.5,40.2-3.6c17.1,0.9,43.4,8,43.4,8c14,2.7,27.4,4.6,39.6,5.2L931.7,961.5z"/>
			</g>
		</g>
		<g>
			<g>
				<g>
					<g>
						<g>
							<path class="st3" d="M1334.8,382.6c-15.5,0-28-12.6-28-28s12.6-28,28-28c15.4,0,28,12.6,28,28S1350.2,382.6,1334.8,382.6z
								 M1334.8,335.4c-10.6,0-19.2,8.6-19.2,19.2c0,10.6,8.6,19.2,19.2,19.2s19.2-8.6,19.2-19.2
								C1354,344,1345.4,335.4,1334.8,335.4z"/>
						</g>
						<g>
							<path class="st2" d="M1579.3,335c-15.5,0-28-12.6-28-28s12.6-28,28-28c15.5,0,28,12.6,28,28S1594.7,335,1579.3,335z
								 M1579.3,287.7c-10.6,0-19.2,8.6-19.2,19.2c0,10.6,8.6,19.2,19.2,19.2c10.6,0,19.2-8.6,19.2-19.2
								C1598.5,296.4,1589.9,287.7,1579.3,287.7z"/>
						</g>
						<g>
							<g>
								<g>
									<path class="st3" d="M1613.9,426.1c-2.4,0-4.4-2-4.4-4.4v-19.4c0-2.4,2-4.4,4.4-4.4c2.4,0,4.4,2,4.4,4.4v19.4
										C1618.3,424.1,1616.3,426.1,1613.9,426.1z"/>
								</g>
								<g>
									<path class="st3" d="M1613.9,460c-2.4,0-4.4-2-4.4-4.4v-19.4c0-2.4,2-4.4,4.4-4.4c2.4,0,4.4,2,4.4,4.4v19.4
										C1618.3,458,1616.3,460,1613.9,460z"/>
								</g>
							</g>
							<g>
								<g>
									<path class="st3" d="M1641.1,433.3h-17.4c-2.4,0-4.4-2-4.4-4.4c0-2.4,2-4.4,4.4-4.4h17.4c2.4,0,4.4,2,4.4,4.4
										C1645.5,431.4,1643.5,433.3,1641.1,433.3z"/>
								</g>
								<g>
									<path class="st3" d="M1604.1,433.3h-17.4c-2.4,0-4.4-2-4.4-4.4c0-2.4,2-4.4,4.4-4.4h17.4c2.4,0,4.4,2,4.4,4.4
										C1608.5,431.4,1606.5,433.3,1604.1,433.3z"/>
								</g>
							</g>
						</g>
						<g>
							<g>
								<g>
									<g>
										<path class="st1" d="M1465.9,308.6c-2.4,0-4.4-2-4.4-4.4v-19.4c0-2.4,2-4.4,4.4-4.4s4.4,2,4.4,4.4v19.4
											C1470.3,306.7,1468.3,308.6,1465.9,308.6z"/>
									</g>
									<g>
										<path class="st1" d="M1465.9,342.5c-2.4,0-4.4-2-4.4-4.4v-19.4c0-2.4,2-4.4,4.4-4.4s4.4,2,4.4,4.4v19.4
											C1470.3,340.6,1468.3,342.5,1465.9,342.5z"/>
									</g>
								</g>
								<g>
									<g>
										<path class="st1" d="M1493.1,315.9h-17.4c-2.4,0-4.4-2-4.4-4.4c0-2.4,2-4.4,4.4-4.4h17.4c2.4,0,4.4,2,4.4,4.4
											C1497.5,313.9,1495.5,315.9,1493.1,315.9z"/>
									</g>
									<g>
										<path class="st1" d="M1456.1,315.9h-17.4c-2.4,0-4.4-2-4.4-4.4c0-2.4,2-4.4,4.4-4.4h17.4c2.4,0,4.4,2,4.4,4.4
											C1460.5,313.9,1458.5,315.9,1456.1,315.9z"/>
									</g>
								</g>
							</g>
						</g>
					</g>
				</g>
				<g>
					<g>
						<g>
							<path class="st3" d="M333.2,283.5c0-15.5,12.6-28,28-28c15.5,0,28,12.6,28,28c0,15.5-12.6,28-28,28
								C345.8,311.5,333.2,298.9,333.2,283.5z M342,283.5c0,10.6,8.6,19.2,19.2,19.2c10.6,0,19.2-8.6,19.2-19.2
								c0-10.6-8.6-19.2-19.2-19.2C350.7,264.3,342,272.9,342,283.5z"/>
						</g>
						<g>
							<path class="st2" d="M220.7,390.3c0-15.5,12.6-28,28-28c15.5,0,28,12.6,28,28s-12.6,28-28,28
								C233.3,418.3,220.7,405.7,220.7,390.3z M229.5,390.3c0,10.6,8.6,19.2,19.2,19.2s19.2-8.6,19.2-19.2
								c0-10.6-8.6-19.2-19.2-19.2S229.5,379.7,229.5,390.3z"/>
						</g>
						<g>
							<g>
								<g>
									<path class="st3" d="M162.5,429.6c2.4,0,4.4-2,4.4-4.4v-19.4c0-2.4-2-4.4-4.4-4.4s-4.4,2-4.4,4.4v19.4
										C158.1,427.6,160,429.6,162.5,429.6z"/>
								</g>
								<g>
									<path class="st3" d="M162.5,463.5c2.4,0,4.4-2,4.4-4.4v-19.4c0-2.4-2-4.4-4.4-4.4s-4.4,2-4.4,4.4v19.4
										C158.1,461.6,160,463.5,162.5,463.5z"/>
								</g>
							</g>
							<g>
								<g>
									<path class="st3" d="M135.3,436.9h17.4c2.4,0,4.4-2,4.4-4.4c0-2.4-2-4.4-4.4-4.4h-17.4c-2.4,0-4.4,2-4.4,4.4
										C130.9,434.9,132.8,436.9,135.3,436.9z"/>
								</g>
								<g>
									<path class="st3" d="M172.3,436.9h17.4c2.4,0,4.4-2,4.4-4.4c0-2.4-2-4.4-4.4-4.4h-17.4c-2.4,0-4.4,2-4.4,4.4
										C167.9,434.9,169.8,436.9,172.3,436.9z"/>
								</g>
							</g>
						</g>
						<g>
							<g>
								<g>
									<g>
										<path class="st1" d="M263.7,280.6c2.4,0,4.4-2,4.4-4.4v-19.4c0-2.4-2-4.4-4.4-4.4s-4.4,2-4.4,4.4v19.4
											C259.3,278.6,261.3,280.6,263.7,280.6z"/>
									</g>
									<g>
										<path class="st1" d="M263.7,314.5c2.4,0,4.4-2,4.4-4.4v-19.4c0-2.4-2-4.4-4.4-4.4s-4.4,2-4.4,4.4v19.4
											C259.3,312.6,261.3,314.5,263.7,314.5z"/>
									</g>
								</g>
								<g>
									<g>
										<path class="st1" d="M236.5,287.9h17.4c2.4,0,4.4-2,4.4-4.4c0-2.4-2-4.4-4.4-4.4h-17.4c-2.4,0-4.4,2-4.4,4.4
											C232.1,285.9,234.1,287.9,236.5,287.9z"/>
									</g>
									<g>
										<path class="st1" d="M273.5,287.9h17.4c2.4,0,4.4-2,4.4-4.4c0-2.4-2-4.4-4.4-4.4h-17.4c-2.4,0-4.4,2-4.4,4.4
											C269.1,285.9,271.1,287.9,273.5,287.9z"/>
									</g>
								</g>
							</g>
						</g>
					</g>
				</g>
			</g>
			<g>
				<g>
					<g>
						<path class="st0" d="M1101.7,285.5c-0.5,0.1-1,0-1.5-0.2c-5.3-2.3-8.5-3.3-8.5-3.3c-1.6-0.5-2.5-2.3-2-3.9
							c0.5-1.6,2.3-2.5,3.9-2c0.1,0,3.4,1.1,8.9,3.5c1.6,0.7,2.3,2.5,1.7,4.1C1103.8,284.7,1102.8,285.4,1101.7,285.5z"/>
					</g>
					<g>
						<path class="st0" d="M1260.8,452.9c2.1,5.7,4.1,11.5,5.9,17.4c0.4,1.5,1.9,2.3,3.3,2.2c0.2,0,0.4-0.1,0.6-0.1
							c1.6-0.5,2.6-2.3,2.1-3.9c-1.8-6-3.9-11.9-6-17.7c-0.6-1.6-2.4-2.4-4-1.8C1261,449.5,1260.2,451.3,1260.8,452.9z"/>
						<path class="st0" d="M1271.5,487.9c1.4,5.9,2.7,11.9,3.8,17.9c0.3,1.6,1.8,2.7,3.4,2.5c0.1,0,0.2,0,0.2,0
							c1.7-0.3,2.8-1.9,2.5-3.6c-1.1-6.2-2.5-12.3-3.9-18.3c-0.4-1.7-2.1-2.7-3.8-2.3C1272.2,484.6,1271.1,486.3,1271.5,487.9z"/>
						<path class="st0" d="M1284.7,582.2c1.5-0.2,2.8-1.5,2.8-3.1c0.1-6.3,0.1-12.5-0.1-18.7c-0.1-1.7-1.5-3.1-3.2-3
							c-1.7,0.1-3.1,1.5-3,3.2c0.2,6,0.2,12.2,0.1,18.4c0,1.7,1.3,3.1,3.1,3.2C1284.4,582.2,1284.6,582.2,1284.7,582.2z"/>
						<path class="st0" d="M1280.9,520.5c-1.7,0.2-2.9,1.8-2.7,3.5c0.4,2.8,0.7,5.7,1,8.5c0.3,3.2,0.6,6.5,0.9,9.8
							c0.1,1.7,1.6,3,3.4,2.9c0,0,0.1,0,0.1,0c1.7-0.2,2.9-1.7,2.8-3.3c-0.3-3.3-0.6-6.7-0.9-10c-0.3-2.8-0.6-5.8-1-8.6
							C1284.2,521.5,1282.7,520.3,1280.9,520.5C1281,520.5,1280.9,520.5,1280.9,520.5z"/>
						<path class="st0" d="M1253.8,435.9c0.6,1.3,1.9,2,3.2,1.8c0.3,0,0.6-0.1,0.9-0.3c1.6-0.7,2.3-2.6,1.6-4.1
							c-2.5-5.7-5.3-11.4-8.2-16.8c-0.8-1.5-2.7-2.1-4.2-1.3c-1.5,0.8-2.1,2.7-1.3,4.2C1248.6,424.8,1251.3,430.4,1253.8,435.9z"/>
						<path class="st0" d="M1116.7,293c5.4,2.7,10.8,5.7,16.1,8.9c0.6,0.4,1.3,0.5,1.9,0.4c0.9-0.1,1.8-0.6,2.4-1.5
							c0.9-1.5,0.4-3.4-1.1-4.3c-5.4-3.2-10.9-6.3-16.4-9.1c-1.5-0.8-3.4-0.2-4.2,1.4C1114.6,290.4,1115.2,292.2,1116.7,293z"/>
						<path class="st0" d="M1163.3,322.4c0.7,0.5,1.5,0.7,2.2,0.6c0.8-0.1,1.6-0.5,2.2-1.2c1-1.4,0.8-3.3-0.6-4.4
							c-4.9-3.8-10.1-7.4-15.2-10.9c-1.4-1-3.4-0.6-4.3,0.8c-1,1.4-0.6,3.4,0.8,4.3C1153.4,315.1,1158.4,318.7,1163.3,322.4z"/>
						<path class="st0" d="M1215.7,373.5c0.7,0.9,1.7,1.3,2.8,1.2c0.6-0.1,1.1-0.3,1.6-0.7c1.3-1.1,1.6-3,0.5-4.4
							c-3.9-4.8-8-9.6-12.2-14.2c-1.2-1.3-3.1-1.4-4.4-0.2c-1.3,1.2-1.4,3.1-0.2,4.4C1207.9,364.1,1211.9,368.8,1215.7,373.5z"/>
						<path class="st0" d="M1191,346.4c0.7,0.7,1.6,1,2.5,0.9c0.7-0.1,1.4-0.4,1.9-0.9c1.2-1.2,1.2-3.2-0.1-4.4
							c-4.4-4.3-9.1-8.6-13.8-12.6c-1.3-1.1-3.3-1-4.4,0.3c-1.1,1.3-1,3.3,0.3,4.4C1182.1,338,1186.7,342.1,1191,346.4z"/>
						<path class="st0" d="M1236.7,403.5c0.6,1.1,1.8,1.6,3,1.5c0.4,0,0.9-0.2,1.3-0.4c1.5-0.9,1.9-2.8,1-4.3
							c-3.2-5.3-6.7-10.6-10.3-15.7c-1-1.4-2.9-1.8-4.3-0.8c-1.4,1-1.8,2.9-0.8,4.3C1230.2,393.2,1233.6,398.3,1236.7,403.5z"/>
					</g>
				</g>
				<g>
					<g>
						<polygon class="st2" points="1101.6,264.1 1115.3,213.6 947.9,215 						"/>
						<polygon class="st3" points="947.9,215 1093.5,276.4 1093.9,276.5 1100.2,286.9 1101.6,264.1 						"/>
						<polygon class="st3" points="1100.2,286.9 1086.6,284.8 1093.9,276.5 						"/>
						<polygon class="st2" points="1075.6,268.8 1093.9,276.5 1056.2,319 947.9,215 						"/>
					</g>
				</g>
			</g>
		</g>
		<g>
			<path class="st1" d="M1871.2,1595v3.1c0,17.6-14.3,31.9-31.9,31.9H186.8c-17.6,0-31.9-14.3-31.9-31.9v-3.1
				c0-17.6,14.3-31.9,31.9-31.9h1652.5C1856.9,1563.1,1871.2,1577.4,1871.2,1595z"/>
			<path class="st3" d="M1871.2,1595v1.5H154.9v-1.5c0-17.6,14.3-31.9,31.9-31.9h1652.5C1856.9,1563.1,1871.2,1577.4,1871.2,1595z"
				/>
		</g>
		<g>
			<path class="st4" d="M1283,1462.9H729.7c-3,0-5.4-2.4-5.4-5.4v-305.8c0-3,2.4-5.4,5.4-5.4H1283c3,0,5.4,2.4,5.4,5.4v305.8
				C1288.4,1460.5,1286,1462.9,1283,1462.9z"/>
			<rect x="962.7" y="1462.5" class="st5" width="87.4" height="99.6"/>
			<circle class="st12" cx="1005.4" cy="1308.5" r="43.4"/>
			<path class="st4" d="M1117.7,1562.1H892.3v-28.7c0-3.7,3-6.6,6.6-6.6h212c3.7,0,6.6,3,6.6,6.6V1562.1z"/>
		</g>
	</g>
</g>
<g id="DESIGNED_BY_FREEPIK">
</g>
</svg>
