<?xml version="1.0" encoding="UTF-8"?>
<svg width="82px" height="84px" viewBox="0 0 82 84" version="1.1" xmlns="http://www.w3.org/2000/svg" xmlns:xlink="http://www.w3.org/1999/xlink">
    <!-- Generator: Sketch 61 (89581) - https://sketch.com -->
    <title>Group</title>
    <desc>Created with Sketch.</desc>
    <g id="Page-1" stroke="none" stroke-width="1" fill="none" fill-rule="evenodd">
        <g id="Group" transform="translate(1.000000, 1.000000)" fill="#4783B2" fill-rule="nonzero" stroke="#000000" stroke-width="2">
            <path d="M52,41 C52,47.627417 46.627417,53 40,53 C33.372583,53 28,47.627417 28,41 C28,34.372583 33.372583,29 40,29 L40,29 C43.1874896,29.0146103 46.2386203,30.2948648 48.4821609,32.559115 C50.7257015,34.8233653 51.9778677,37.8861303 51.9631902,41.0736196 L52,41 Z" id="Path"></path>
            <path d="M79.9983472,41.3223589 C79.897591,56.8798651 71.1935907,71.0350831 57.5343531,77.8553004 C43.8751155,84.6755177 27.620374,82.9824918 15.58279,73.485801 L27.0736942,61.7861362 C37.3400483,68.5996991 50.9697401,66.4164999 58.7123897,56.7182611 C66.4550393,47.0200223 65.8318092,32.9116704 57.2656816,23.9684487 C48.6995539,15.0252271 34.9330055,14.1103407 25.3093001,21.8447167 C15.6855946,29.5790928 13.2857964,43.4865426 19.7386324,54.1281738 L8.2269489,65.8278386 C-2.40076048,51.6019073 -2.76493597,31.9562105 7.32789467,17.3277404 C17.4207253,2.69927037 35.6286341,-3.51760081 52.2784695,1.97990795 C68.928305,7.47741671 80.1566598,23.4136703 79.9983472,41.3223589 Z" id="Path"></path>
        </g>
    </g>
</svg>