<?xml version="1.0" encoding="UTF-8"?>
<svg width="389px" height="382px" viewBox="0 0 389 382" version="1.1" xmlns="http://www.w3.org/2000/svg" xmlns:xlink="http://www.w3.org/1999/xlink">
    <!-- Generator: Sketch 52.2 (67145) - http://www.bohemiancoding.com/sketch -->
    <title>Group 3</title>
    <desc>Created with Sketch.</desc>
    <g id="Exploration_IB" stroke="none" stroke-width="1" fill="none" fill-rule="evenodd">
        <g id="Group-3" transform="translate(1.000000, -19.000000)">
            <path d="M301.38777,307.291841 C301.38777,307.291841 312.750843,312.525058 295.169477,326.185193 C295.169477,326.185193 260.375426,349.494379 287.085104,315.600583 C295.758973,304.594479 301.38777,307.291841 301.38777,307.291841" id="Fill-7" fill="#34A253" style="mix-blend-mode: multiply;" transform="translate(291.000000, 320.500000) rotate(-199.000000) translate(-291.000000, -320.500000) "></path>
            <g id="Group-7" transform="translate(193.000000, 218.500000) scale(-1, 1) translate(-193.000000, -218.500000) translate(0.000000, 37.000000)">
                <polygon id="Stroke-1" stroke="#B7B7B7" points="288 363 386 363 386 265 288 265"></polygon>
                <polygon id="Stroke-3" stroke="#B7B7B7" points="190 265 288 265 288 167 190 167"></polygon>
                <path d="M32.7056902,52.8425994 C27.8467409,53.6722646 22.8978596,53.4313897 18.0920387,52.1244792 C9.51599623,49.7924906 1.80605436,42.7403417 1.63028264,28.974843 C1.51100603,19.6064347 5.51397602,10.0406076 10.9082673,4.99853245 C17.5918887,-1.24993681 27.3191616,1.59193075 34.3431076,5.2854895 C37.5602669,6.9766936 40.2430487,9.42536611 43.1281496,11.9443289 C46.0092483,14.45882 48.8396911,17.2830925 50.9179133,21.1567061 C54.0768292,27.0469749 54.7388393,34.7956177 51.4820402,40.794192 C48.3746111,46.5181297 43.1615328,49.6848918 38.3795976,51.3672852 C36.5117307,52.0249193 34.6158336,52.5164771 32.7056902,52.8425994" id="Fill-8-Copy" fill="#FABB05" style="mix-blend-mode: multiply;" transform="translate(27.627686, 27.325103) rotate(183.000000) translate(-27.627686, -27.325103) "></path>
                <path d="M335.231669,192.505186 C335.231669,192.505186 332.54145,169.04504 345.495875,173.582524 C345.495875,173.582524 369.692407,189.622675 344.63751,200.287207 C336.113411,203.916586 335.231669,192.505186 335.231669,192.505186" id="Fill-19" fill="#4280EE" style="mix-blend-mode: multiply;" transform="translate(345.500000, 187.000000) rotate(-25.000000) translate(-345.500000, -187.000000) "></path>
                <path d="M198.645176,112.689505 C197.122188,117.368458 192.265553,119.088313 187.387239,117.317045 C182.508509,115.546157 180.882543,110.861111 182.758657,107.147579 C184.635188,103.434046 189.263354,102.00553 194.392233,103.719673 C199.520696,105.433816 199.333084,110.575484 198.645176,112.689505" id="Fill-21" fill="#E44335" style="mix-blend-mode: multiply;"></path>
            </g>
            <path d="M391.259125,63.5440867 C338.42194,11.7690694 253.515774,12.5287116 201.616278,65.2391693 C149.716781,117.949627 150.476633,202.652149 203.315436,254.427166 L391.259125,63.5440867 Z" id="Stroke-3" stroke="#B7B7B7" style="mix-blend-mode: multiply;" transform="translate(277.221354, 139.815667) rotate(-255.000000) translate(-277.221354, -139.815667) "></path>
        </g>
    </g>
</svg>