<svg enable-background="new 0 0 2331.5 2500" viewBox="0 0 2331.5 2500" xmlns="http://www.w3.org/2000/svg"><path d="m1332.3 384.6v384.6l666.2 384.6v-384.6zm-1332.3 384.6v384.6l333.1 192.3v-384.6zm999.2 192.3-333.1 192.3v1153.8l333.1 192.4v-769.2l333.1 192.3v-384.6l-333.1-192.3z" fill="#e55b2d"/><path d="m1332.3 384.6-999.2 576.9v384.6l666.2-384.6v384.6l333.1-192.3v-769.2zm999.2 192.3-333.1 192.3v384.6l333.1-192.3zm-666.1 769.3-333.1 192.3v384.6l333.1-192.3zm-333.1 576.9-333.1-192.3v769.2l333.1-192.3z" fill="#ed8e24"/><path d="m1332.3 0-1332.3 769.2 333.1 192.3 999.2-576.9 666.2 384.6 333.1-192.3zm0 1153.8-333.1 192.3 333.1 192.3 333.1-192.3z" fill="#f8bf3c"/></svg>