<?xml version="1.0" encoding="UTF-8"?>
<svg width="404px" height="478px" viewBox="0 0 404 478" version="1.1" xmlns="http://www.w3.org/2000/svg" xmlns:xlink="http://www.w3.org/1999/xlink">
    <!-- Generator: Sketch 52.2 (67145) - http://www.bohemiancoding.com/sketch -->
    <title>Group 10 Copy</title>
    <desc>Created with Sketch.</desc>
    <defs>
        <polygon id="path-1" points="0 0 31 0 31 31 0 31"></polygon>
    </defs>
    <g id="Exploration_IB" stroke="none" stroke-width="1" fill="none" fill-rule="evenodd">
        <g id="Group-10-Copy" transform="translate(0.000000, -10.000000)">
            <path d="M107.935689,248.716398 C114.64737,246.336215 121.793339,250.260916 124.086305,254.991632 C126.37927,259.722348 124.285549,268.508224 118.603065,271.114657 C112.92058,273.721545 103.449616,270.24615 100.956934,264.936125 C98.4647238,259.626101 100.857547,251.226583 107.935689,248.716398" id="Fill-21" fill="#3E82F7" style="mix-blend-mode: multiply;"></path>
            <path d="M368.385087,214.503966 C371.741002,210.680011 388.925049,210.985093 395.870987,217.166805 C402.816361,223.348516 399.952353,233.984083 394.953173,238.283424 C389.953429,242.582764 380.441335,244.798977 373.008567,235.556862 C366.731668,227.752746 365.710621,217.551399 368.385087,214.503966" id="Fill-31" fill="#FABB05" style="mix-blend-mode: multiply;" transform="translate(383.500000, 227.000000) rotate(19.000000) translate(-383.500000, -227.000000) "></path>
            <path d="M162.724435,332.763155 C130.384314,300.456495 130.384314,248.07736 162.724435,215.7707 L279.838063,332.763155 C247.497943,365.069814 195.064556,365.069814 162.724435,332.763155 Z" id="Stroke-1" stroke="#B7B7B7" style="mix-blend-mode: multiply;"></path>
            <path d="M321.218012,324.196944 C366.165505,324.196944 402.60195,360.59569 402.60195,405.496677 C402.60195,450.397663 366.165505,486.796409 321.218012,486.796409 C276.27052,486.796409 239.834074,450.397663 239.834074,405.496677 C239.834074,360.59569 276.27052,324.196944 321.218012,324.196944 Z" id="Stroke-3" stroke="#B7B7B7" style="mix-blend-mode: multiply;"></path>
            <polygon id="Stroke-5" stroke="#B7B7B7" style="mix-blend-mode: multiply;" points="0.679519474 483.943787 156.308454 483.943787 156.308454 328.475878 0.679519474 328.475878"></polygon>
            <polygon id="Stroke-3" stroke="#B7B7B7" transform="translate(316.447000, 64.447500) rotate(-11.000000) translate(-316.447000, -64.447500) " points="316.447 10 262 64.447 316.447 118.895 370.894 64.447"></polygon>
            <g id="Group-3" style="mix-blend-mode: multiply;" transform="translate(329.000000, 19.000000)">
                <mask id="mask-2" fill="white">
                    <use xlink:href="#path-1"></use>
                </mask>
                <g id="Clip-2"></g>
                <path d="M9.84027693,0.925216262 C18.1627273,-2.14896048 27.0236239,2.92059607 29.8670201,9.03114854 C32.7102344,15.1415175 30.1142324,26.4895291 23.0678632,29.856572 C16.0213121,33.2236148 4.27736346,28.7342855 1.18675492,21.8756032 C-1.90385363,15.0167375 1.06323972,4.16766257 9.84027693,0.925216262" id="Fill-1" fill="#34A253" mask="url(#mask-2)"></path>
            </g>
            <path d="M198.413699,126.524972 C198.026503,125.37765 197.697751,124.203472 197.379228,123.029294 C196.524474,119.875277 196.027694,115.755956 198.207681,113.028641 C199.011296,112.023056 200.210873,111.423285 201.43529,111.080133 C209.537187,108.813835 219.874594,111.597845 225.017728,118.608597 C228.509799,123.372446 229.181913,132.07658 222.976547,134.709902 C216.373756,137.513307 207.596823,139.311127 202.104482,133.268662 C200.324841,131.308217 199.23923,128.977765 198.413699,126.524972 L266.413458,233.013369" id="Fill-8" fill="#E44335" style="mix-blend-mode: multiply;" transform="translate(231.532718, 171.660596) rotate(92.000000) translate(-231.532718, -171.660596) "></path>
        </g>
    </g>
</svg>