<svg version="1.1" width="211" height="26" viewBox="0 0 268 33" xmlns="http://www.w3.org/2000/svg">
    <g fill="none" fill-rule="evenodd">
        <g fill="#053C59">
            <path d="m59.673 10.527h4.2759l-5.1128 6.2425 5.9758 9.7321h-5.0001l-5.1258-8.9637 3.6739-4.4667c0.61232-0.73635 1.1002-1.6145 1.3131-2.5438v-4.337e-4zm-54.89 6.4315v7.3115h2.925c2.657 0 3.8682-1.3608 3.8465-3.8092-0.021683-2.4523-1.6132-3.5092-3.8465-3.5022l-2.925-3.4e-5zm0-8.0963v5.8587h2.5642c2.1119-0.0060712 3.4354-0.89897 3.4389-3.0686 0.002602-2.203-1.5568-2.7928-3.4268-2.7893h-2.5759l-4.3365e-4 -8.6731e-4zm4.2997 17.639h-8.6883v-16.74c-0.011709-1.3747-0.10408-2.1574-0.39463-3.118h9.9533c2.7646 0.0043366 5.2394 1.2819 5.2394 4.4086 0 3.0113-2.1553 4.0994-4.2368 4.5577 2.072 0.11709 5.262 1.5464 5.262 5.1432 0 3.9081-3.2646 5.7616-7.135 5.7486zm77.644-14.677v14.677h4.0573v-11.136h2.86v-2.3483h-2.8595v-1.843c0-1.5221 0.82178-2.6496 2.2398-2.6462 1.1275 0.0021683 2.1978 0.3981 2.9706 0.93453v-2.6011c-0.58977-0.30356-1.8604-0.6713-3.5239-0.6713-4.0712 0-5.7429 2.4805-5.7429 5.6349h-0.001301zm-9.664 12.779c-2.2784 0-3.1583-1.8699-3.1583-6.0105 0-4.3301 0.87165-6.1189 3.1583-6.1371 2.1839-0.017346 3.118 1.9471 3.1592 6.1375 0.041631 4.1401-0.88119 6.0105-3.1592 6.0105v-4.337e-4zm0.024718-14.493c-3.9649 0.025152-7.4736 2.3387-7.4572 8.4823 0.016479 6.1449 3.6141 8.3765 7.4572 8.3765 3.8422 0 7.4372-2.2602 7.4086-8.3757-0.029055-6.1527-3.262-8.5092-7.4086-8.4823v-8.673e-4zm-26.613 16.391s-0.002602-15.717 0-16.871c0.0021682-1.1206-0.10234-2.2056-0.43192-2.9879h4.4831v19.858h-4.0512v4.336e-4zm-24.931-7.8457c-1.7793 0.51258-3.5517 1.441-3.5447 3.3027 0.0043365 1.5438 0.87078 2.3244 2.3808 2.3244 1.4029 0 2.7082-0.70686 3.2147-1.1795v-4.9871c-0.53036 0.13443-1.3227 0.32828-2.0512 0.53904l4.336e-4 4.336e-4zm-0.39203-8.5552c3.0287 0 6.4823 0.42932 6.4823 5.1115v7.9489c0 1.497 0.16479 2.6999 0.35907 3.34h-3.8144c-0.069385-0.22984-0.19515-0.74762-0.28274-1.1223-0.51085 0.36124-2.2316 1.585-4.9632 1.5872-3.0443 0.001301-5.0825-1.5915-5.0972-4.6115-0.017346-3.0764 2.0356-4.5534 4.9871-5.275 1.2897-0.3144 4.1432-0.97486 4.7715-1.1587v-1.003c0-2.0542-1.1405-2.6254-2.3921-2.6254-1.5252 0-2.8981 0.94624-2.9098 2.7624l-3.7078 0.01301c0-2.1345 1.4037-4.971 6.5669-4.9667l4.337e-4 -4.336e-4zm17.756 0.017346c-2.1336 0-3.9571 1.2086-4.5642 1.6045v-1.1882h-4.4307c0.25933 0.91502 0.40677 1.9298 0.40504 3.0499-0.0034693 1.1535 0 12.927 0 12.927h4.0256v-12.288c0.63878-0.51909 1.7897-1.3721 3.072-1.3721 1.9801 0 2.451 1.1787 2.4493 3.5022v10.158h4.0235v-10.357c0-2.5742-0.43799-6.0365-4.9806-6.0365v-4.337e-4zm70.211 2.4666v-2.0512h-4.4606c0.26757 0.85691 0.41067 1.9332 0.4085 3.0521-0.002602 1.1544 0 12.916 0 12.916h4.0517v-9.1398c-0.01301-2.7134 1.6835-4.095 4.5829-4.0807v-3.1614c-2.6063-0.0043277-4.2164 1.5742-4.5838 2.4649h0.0013zm71.255 10.124c-0.29055 0.52039-1.5863 1.7459-2.9402 1.7459-1.7927 0-3.3261-1.0122-3.3183-6.0018 0.006072-4.7694 1.624-5.8422 3.2871-5.8422 1.4311 0 2.5998 1.0616 2.9714 1.703v8.3956-4.336e-4zm-0.41198-16.065c0.31787 0.88813 0.41458 1.8617 0.41198 2.9814 0 0-8.68e-4 1.9328 0 1.9619-0.83826-0.76887-2.1613-1.4801-4.0408-1.4757-2.4385 0.0043366-6.504 1.4068-6.5153 8.3514-0.008673 6.6276 3.2221 8.517 6.2707 8.4927 2.4137-0.019948 4.1371-1.5343 4.2854-1.6687v1.1947h4.0603v-19.838h-4.4719-4.34e-4zm-82.282 19.858s-0.004337-15.694 0-16.848c0.003035-1.1197-0.15612-2.3834-0.36861-3.0104h4.7503v19.858h-4.3817zm33.668 0s-0.002602-15.717 0-16.871c0.002168-1.1206-0.10191-2.2056-0.43062-2.9879h4.4823v19.858h-4.0521l4.34e-4 4.336e-4zm-12.699-9.6194h6.1605c-0.10278-1.9532-0.71727-4.422-3.0594-4.4198-2.3448 0.0030356-2.9003 2.53-3.1006 4.4203l-4.33e-4 -4.336e-4zm10.469 1.4354c-0.001735 0.23201-0.004337 0.46228-0.019948 0.69515h-10.496c0.007372 3.4549 0.70252 5.595 3.1483 5.6028 1.9515 0.0043366 2.7039-1.4215 2.9588-3.5048l4.2125 0.0052039c-0.83826 4.4276-3.971 5.8622-7.1714 5.8604-4.0664-0.002602-7.4459-2.1509-7.4372-8.6354 0.008673-5.5976 3.3227-8.2178 7.4372-8.2234 3.9853-0.0056376 7.3882 2.6032 7.3678 8.2005v-4.337e-4zm16.189 0.33825c-1.7793 0.51258-3.5517 1.441-3.5443 3.3027 0.004337 1.5438 0.87078 2.3244 2.3799 2.3244 1.4037 0 2.7086-0.70686 3.2151-1.1795v-4.9871c-0.53036 0.13443-1.3227 0.32828-2.0512 0.53904l4.34e-4 4.336e-4zm-0.39203-8.5548c3.0291 0 6.4832 0.42932 6.4832 5.1115v7.9489c0 1.497 0.16392 2.6999 0.35864 3.34h-3.8153c-0.068518-0.22984-0.19515-0.74762-0.28188-1.1223-0.51085 0.36124-2.232 1.585-4.9636 1.5872-3.0443 0.0013009-5.0825-1.5915-5.0976-4.6115-0.017347-3.0764 2.0365-4.5534 4.9871-5.275 1.2901-0.3144 4.1436-0.97486 4.772-1.1587v-1.0035c0-2.0542-1.1414-2.6254-2.3921-2.6254-1.5256 0-2.8986 0.94624-2.9098 2.7624l-3.7078 0.01301c0-2.1345 1.4033-4.971 6.5664-4.9667h8.68e-4zm17.757 0.016913c-2.1336 0-3.9571 1.2086-4.5647 1.6045v-1.1882h-4.4307c0.25889 0.91502 0.40634 1.9298 0.4046 3.0499-0.003469 1.1535 0 12.927 0 12.927h4.0261v-12.288c0.63878-0.51909 1.7897-1.3721 3.072-1.3721 1.9809 0 2.4515 1.1787 2.4502 3.5022v10.158h4.0226v-10.357c0-2.5742-0.43799-6.0365-4.9797-6.0365l-4.34e-4 -4.337e-4zm71.438 2.6618c0.47832-2.7416 12.429-3.1171 12.429-5.9324 0-0.069385 0.062446-0.13443 0.1366-0.13443 0.071553 0 0.12576 0.065049 0.12576 0.13443v2.9762c0 3.5313-12.014 3.0868-12.583 6.4767-0.021682 0.075023-0.034692 0.13877-0.10841 0.13877-0.078058 0-0.094103-0.063748-0.10668-0.13877-0.57676-3.3899-12.595-2.9454-12.595-6.4767v-2.9762c0-0.069385 0.060711-0.13443 0.13877-0.13443 0.066783 0 0.1327 0.065049 0.1327 0.13443 0 2.8153 11.943 3.1908 12.429 5.9324h4.34e-4z"/>
            <path d="m238.11 18.824c0.47832-2.7459 12.429-3.1206 12.429-5.9281 0-0.078058 0.062446-0.1301 0.1366-0.1301 0.071553 0 0.12576 0.052039 0.12576 0.1301v2.9645c0 3.5438-12.014 3.0855-12.583 6.4767-0.021682 0.078058-0.034692 0.13964-0.10841 0.13964-0.078058 0-0.094103-0.060712-0.10668-0.14007-0.57676-3.3912-12.595-2.9333-12.595-6.4771v-2.9645c0-0.078058 0.060711-0.1301 0.13877-0.1301 0.066783 0 0.1327 0.052039 0.1327 0.1301 0 2.8075 11.943 3.1822 12.429 5.9281"/>
            <path d="m238.11 25.026c0.47832-2.7494 12.429-3.1249 12.429-5.9402 0-0.069385 0.062446-0.1314 0.1366-0.1314 0.071553 0 0.12576 0.060712 0.12576 0.13096v2.9723c0 3.543-12.014 3.0768-12.583 6.4853-0.021682 0.070252-0.034692 0.13096-0.10841 0.13096-0.078058 0-0.094103-0.060712-0.10668-0.1301-0.57676-3.4085-12.595-2.9424-12.595-6.4858v-2.9723c0-0.069385 0.060711-0.1314 0.13877-0.1314 0.066783 0 0.1327 0.060712 0.1327 0.13096 0 2.8153 11.943 3.1908 12.429 5.9411"/>
            <path d="m208.48 16.536c0-8.9741 13.263-16.244 29.627-16.244 16.365 0 29.624 7.2698 29.624 16.244 0 8.9607-13.259 16.227-29.624 16.227-16.365 0-29.627-7.2659-29.627-16.227m29.627 14.613c14.085 0 25.511-6.5461 25.511-14.622 0-8.076-11.426-14.613-25.511-14.613-14.094 0-25.514 6.5374-25.514 14.613 0 8.076 11.42 14.622 25.514 14.622"/>
        </g>
    </g>
</svg>
