<svg xmlns="http://www.w3.org/2000/svg" viewBox="0 0 362.3 95.2"><defs><style>.cls-1{fill:#a0a0a0;}.cls-2{fill:#5bb72c;}.cls-3{fill:#818282;}</style></defs><title>SIMP-Logo-black</title><g id="Layer_2" data-name="Layer 2"><g id="Layer_1-2" data-name="Layer 1"><g id="g4199"><g id="g15"><path id="path17" d="M348.8,6.6a32.78,32.78,0,0,0-12.8-3H294.6V5h0V84.3h13.7V14.9H336a19.91,19.91,0,0,1,8.2,2c4.7,2.3,6.9,6.2,6.9,12.1a11.8,11.8,0,0,1-6.9,11,20.23,20.23,0,0,1-8.1,2H317.3V53.3c.5,0,13.2.1,22.7-.3a27.8,27.8,0,0,0,10.6-2.8c7.8-3.6,11.7-10.9,11.7-21.2s-4.8-18.2-13.5-22.4Z"/><path id="path19" d="M147.4,34.6a33.77,33.77,0,0,0-13.2-3.1H117.5a11,11,0,0,1-3-.9c-2.5-1.1-3.6-3-3.6-6.3s1-5,3.3-6.2a11.35,11.35,0,0,1,4.7-1.2h28.6V3.8H119a26.52,26.52,0,0,0-10.2,2.5c-7.1,3.4-10.9,9.8-10.9,18.1s3.9,14.6,11,18a24.57,24.57,0,0,0,10.2,2.4h15.1a20.73,20.73,0,0,1,7.8,2c4.4,2.1,6.3,5.6,6.3,11.2s-2,9-6.3,11.1a18.61,18.61,0,0,1-7.7,1.9H99.5l-.2,13.3h35a33.77,33.77,0,0,0,13.2-3.1c9.1-4.3,14.1-12.6,14.1-23.3s-5-19-14.2-23.3Z"/><rect id="rect21" x="173.7" y="3.9" width="13.7" height="80.8"/></g><g id="g23"><g id="g25"><polygon id="polygon27" points="282.2 28.1 268.5 38.6 268.5 84.5 282.2 84.5 282.2 28.1"/></g><g id="g29"><polygon id="polygon31" points="216.3 26.3 202.6 4.6 202.6 84.5 216.3 84.5 216.3 26.3"/></g></g><g id="g33"><polyline id="polyline35" class="cls-1" points="39.7 0 39.7 0 79.5 29.2 79.5 43.8 39.7 14.6 24.5 25.7 24.5 11.1 39.7 0"/></g><g id="g37"><polyline id="polyline39" class="cls-1" points="39.7 22 39.7 22 79.5 51.2 79.5 65.8 39.7 36.5 24.5 47.7 24.5 33.1 39.7 22"/></g><g id="g41"><polyline id="polyline43" class="cls-2" points="39.7 95.2 39.7 95.2 79.5 65.9 79.5 51.4 39.7 80.6 24.5 69.5 24.5 84 39.7 95.2"/></g><polygon id="polygon45" points="18.3 16.4 18.3 31 0 44.4 0 29.9 18.3 16.4"/><polygon id="polygon47" points="18.3 38.4 18.3 52.9 0 66.4 0 51.9 18.3 38.4"/><g id="g49"><polyline id="polyline51" class="cls-2" points="242.3 47.6 242.3 47.6 282.2 18.3 282.2 3.8 242.3 33 227.2 21.9 227.2 36.5 242.3 47.6"/></g><polygon id="polygon53" points="221 32.2 221 17.6 202.6 4.2 202.6 18.7 221 32.2"/><polygon id="polygon55" class="cls-3" points="18.3 57.8 18.3 43.2 0 29.8 0 44.3 18.3 57.8"/><polygon id="polygon57" class="cls-3" points="18.3 79.8 18.3 65.2 0 51.8 0 66.2 18.3 79.8"/><polygon id="polygon59" points="39.7 0 39.7 14.6 24.5 25.7 24.5 11.1 39.7 0"/><polygon id="polygon61" points="39.7 22 39.7 36.5 24.5 47.7 24.5 33.1 39.7 22"/><g id="g63"><polyline id="polyline65" class="cls-2" points="39.7 73.2 39.7 73.2 79.5 43.9 79.5 29.4 39.7 58.6 24.5 47.5 24.5 62.1 39.7 73.2"/></g></g></g></g></svg>