<svg xmlns="http://www.w3.org/2000/svg" viewBox="0 0 362.38 95.15"><defs><style>.cls-1{fill:#fff;}.cls-2{fill:#818282;}.cls-3{fill:#5bb72c;}.cls-4{fill:#575757;}</style></defs><title>SIMP-Logo-white</title><g id="Layer_2" data-name="Layer 2"><g id="Layer_1-2" data-name="Layer 1"><path class="cls-1" d="M348.84,6.6a32.57,32.57,0,0,0-12.78-3H294.65V5h0V84.27h13.67V14.92H336a20,20,0,0,1,8.22,2c4.74,2.32,6.87,6.19,6.87,12.09a11.85,11.85,0,0,1-6.87,11,20,20,0,0,1-8.13,2H317.29V53.39c.49,0,13.22.09,22.74-.33a28.36,28.36,0,0,0,10.62-2.84C358.4,46.59,362.38,39.3,362.38,29S357.54,10.76,348.84,6.6Z"/><path class="cls-1" d="M147.47,34.57a33.7,33.7,0,0,0-13.2-3.1H117.59a12.44,12.44,0,0,1-3-.94c-2.5-1.13-3.57-3-3.58-6.26s1-5,3.31-6.21A12.6,12.6,0,0,1,119,16.84h28.6l0-13.13H119a27.28,27.28,0,0,0-10.16,2.46C101.78,9.57,97.9,16,97.92,24.3s3.93,14.61,11,18a25.5,25.5,0,0,0,10.17,2.44l15.06,0a19.9,19.9,0,0,1,7.8,2c4.36,2.14,6.31,5.59,6.31,11.2s-2,9-6.33,11.11A19.07,19.07,0,0,1,134.27,71H99.47l-.18,13.32h35a33.7,33.7,0,0,0,13.2-3.1c9.11-4.35,14.12-12.61,14.12-23.25S156.58,38.92,147.47,34.57Z"/><rect class="cls-1" x="173.71" y="3.87" width="13.67" height="80.76"/><polygon class="cls-1" points="268.51 38.59 268.51 84.49 282.17 84.49 282.17 28.11 268.51 38.59"/><polygon class="cls-1" points="202.66 4.62 202.66 84.52 216.32 84.52 216.32 26.33 202.66 4.62"/><polyline class="cls-2" points="39.69 0 39.7 0 79.52 29.24 79.52 43.78 39.69 14.54 24.55 25.66 24.55 11.12 39.69 0.01"/><polyline class="cls-2" points="39.69 21.98 39.7 21.98 79.52 51.22 79.52 65.76 39.69 36.52 24.55 47.64 24.55 33.1 39.69 21.98"/><polyline class="cls-3" points="39.69 95.15 39.7 95.15 79.52 65.91 79.52 51.37 39.69 80.61 24.55 69.48 24.55 84.03 39.69 95.14"/><polygon class="cls-4" points="18.34 30.95 0 44.37 0 29.91 18.34 16.37 18.34 30.95"/><polygon class="cls-4" points="18.34 52.93 0 66.34 0 51.89 18.34 38.34 18.34 52.93"/><polyline class="cls-3" points="242.35 47.57 242.35 47.58 282.17 18.34 282.17 3.8 242.35 33.03 227.2 21.91 227.2 36.45 242.35 47.57"/><polygon class="cls-1" points="221 17.63 202.66 4.21 202.66 18.66 221 32.21 221 17.63"/><polygon class="cls-1" points="18.34 43.22 0 29.8 0 44.26 18.34 57.8 18.34 43.22"/><polygon class="cls-1" points="18.34 65.2 0 51.78 0 66.24 18.34 79.78 18.34 65.2"/><polygon class="cls-4" points="39.69 14.54 24.55 25.73 24.55 11.12 39.7 0 39.69 14.54"/><polygon class="cls-4" points="39.69 36.52 24.55 47.71 24.55 33.1 39.7 21.98 39.69 36.52"/><polyline class="cls-3" points="39.69 73.17 39.7 73.17 79.52 43.94 79.52 29.39 39.69 58.63 24.55 47.51 24.55 62.05 39.69 73.17"/></g></g></svg>