<svg xmlns="http://www.w3.org/2000/svg" xmlns:xlink="http://www.w3.org/1999/xlink" viewBox="0 0 1972.1 255.1"><g fill="#676767"><path d="M412.4 57.3h16.2l22.4 90.8 2.1 8.5h.7l2.6-8.5L484 57.3h15.2l26.4 90.8 2.6 8.5h.7l24.3-99.2h16.2L536.1 181H521l-26.2-89.4-2.8-9.7h-.7l-2.9 9.7-27.3 89.4h-15.2L412.4 57.3zM590.7 177.4c-6.9-4.1-12.3-9.8-16.1-16.9s-5.8-15-5.8-23.6c0-8.6 1.9-16.5 5.8-23.7 3.9-7.1 9.2-12.8 16.1-16.9 6.9-4.1 14.7-6.2 23.3-6.2 8.6 0 16.4 2.1 23.3 6.2 6.9 4.1 12.3 9.8 16.1 16.9 3.9 7.1 5.8 15 5.8 23.7 0 8.6-1.9 16.5-5.8 23.6-3.9 7.1-9.2 12.8-16.1 16.9-6.9 4.1-14.7 6.2-23.3 6.2-8.6.1-16.4-2-23.3-6.2zm38.4-11.1c4.7-2.7 8.4-6.6 11.2-11.7 2.8-5.1 4.2-11 4.2-17.8 0-6.8-1.4-12.7-4.2-17.8-2.8-5.1-6.6-8.9-11.2-11.7-4.7-2.7-9.7-4-15.1-4s-10.5 1.3-15.2 4c-4.7 2.7-8.5 6.6-11.3 11.7-2.8 5.1-4.2 11-4.2 17.8 0 6.8 1.4 12.7 4.2 17.8 2.8 5.1 6.6 8.9 11.3 11.7 4.7 2.7 9.8 4 15.2 4 5.4.1 10.5-1.3 15.1-4zM674.6 92.9h14v13h.7c2.5-4.5 6.3-8.2 11.4-11.2 5.1-3 10.4-4.5 16.1-4.5 6.4 0 12.1 1.5 16.8 4.6 4.8 3.1 8.2 7.2 10.3 12.4 3.1-5.2 7.2-9.3 12.3-12.4 5.1-3.1 11.1-4.6 17.9-4.6 10.1 0 17.7 3.1 22.9 9.2 5.1 6.2 7.7 14.5 7.7 25.1v56.4h-14.5v-54.2c0-8.2-1.7-14.1-5-17.8-3.3-3.7-8.3-5.5-14.8-5.5-4.4 0-8.3 1.3-11.9 3.8s-6.4 5.9-8.4 10.2-3 8.9-3 13.8v49.7h-14.7v-54c0-8.3-1.7-14.3-5-18-3.3-3.7-8.2-5.5-14.7-5.5-4.4 0-8.3 1.3-11.9 3.9-3.6 2.6-6.4 6-8.4 10.4-2 4.3-3 9-3 13.9V181h-14.7V92.9zM842.2 177.6c-6.7-4-11.9-9.6-15.6-16.7-3.7-7.1-5.6-15-5.6-23.9 0-8.5 1.8-16.3 5.3-23.5 3.5-7.1 8.5-12.8 14.9-17.1 6.4-4.3 13.9-6.4 22.4-6.4 8.6 0 16.1 1.9 22.4 5.8 6.3 3.9 11.2 9.2 14.6 16 3.4 6.8 5.1 14.6 5.1 23.3 0 1.7-.2 3.2-.5 4.5h-69.6c.3 6.7 2 12.3 4.8 16.9 2.9 4.6 6.5 8.1 11 10.4 4.4 2.3 9.1 3.4 13.9 3.4 11.3 0 20-5.3 26.1-15.9l12.4 6c-3.8 7.1-8.9 12.8-15.4 16.9-6.5 4.1-14.4 6.2-23.6 6.2-8.4.2-15.9-1.9-22.6-5.9zm48-50c-.2-3.7-1.3-7.4-3.1-11-1.8-3.7-4.7-6.8-8.7-9.3-4-2.5-9-3.8-14.9-3.8-6.9 0-12.7 2.2-17.5 6.6-4.8 4.4-7.9 10.3-9.4 17.5h53.6zM922.8 92.9h14v13h.7c2.4-4.4 6.3-8.1 11.6-11.1s10.9-4.6 16.9-4.6c10.6 0 18.7 3.1 24.2 9.2 5.6 6.2 8.4 14.5 8.4 25.1v56.4h-14.7v-54.2c0-8.2-2-14.1-5.9-17.8-3.9-3.7-9.3-5.5-16.1-5.5-4.7 0-8.9 1.3-12.7 4-3.7 2.7-6.6 6.1-8.7 10.5s-3.1 8.8-3.1 13.5v49.5h-14.7v-88zM1081.1 71.3h-34.7v-14h83.9v14h-34.5v109.6h-14.7V71.3zM1148.6 177.6c-6.7-4-11.9-9.6-15.6-16.7-3.7-7.1-5.6-15-5.6-23.9 0-8.5 1.8-16.3 5.3-23.5 3.5-7.1 8.5-12.8 14.9-17.1 6.4-4.3 13.9-6.4 22.4-6.4 8.6 0 16.1 1.9 22.4 5.8 6.3 3.9 11.2 9.2 14.6 16 3.4 6.8 5.1 14.6 5.1 23.3 0 1.7-.2 3.2-.5 4.5H1142c.3 6.7 2 12.3 4.8 16.9 2.9 4.6 6.5 8.1 11 10.4 4.4 2.3 9.1 3.4 13.9 3.4 11.3 0 20-5.3 26.1-15.9l12.4 6c-3.8 7.1-8.9 12.8-15.4 16.9-6.5 4.1-14.4 6.2-23.6 6.2-8.4.2-16-1.9-22.6-5.9zm48-50c-.2-3.7-1.3-7.4-3.1-11-1.8-3.7-4.7-6.8-8.7-9.3-4-2.5-9-3.8-14.9-3.8-6.9 0-12.7 2.2-17.5 6.6-4.8 4.4-7.9 10.3-9.4 17.5h53.6zM1247 177.5c-6.8-4.1-12.1-9.7-15.9-16.7-3.8-7.1-5.7-15-5.7-23.9 0-8.9 1.9-16.9 5.7-24 3.8-7.1 9.1-12.7 15.9-16.7 6.8-4 14.4-6 23-6 9.5 0 17.6 2.2 24.1 6.6 6.5 4.4 11.1 10.3 13.9 17.7l-13.3 5.5c-2.2-5.4-5.4-9.5-9.8-12.3-4.3-2.8-9.5-4.2-15.6-4.2-5.2 0-10 1.4-14.5 4.2s-8.1 6.8-10.8 11.8c-2.7 5.1-4.1 10.9-4.1 17.4 0 6.6 1.4 12.4 4.1 17.4 2.7 5.1 6.3 9 10.8 11.8 4.5 2.8 9.3 4.2 14.5 4.2 6.2 0 11.6-1.4 16.1-4.3 4.5-2.9 7.8-7 10-12.2l13.1 5.5c-3 7.2-7.8 13.1-14.4 17.6-6.6 4.5-14.6 6.7-24.1 6.7-8.6.1-16.3-2-23-6.1zM1324.3 57.3h14.7v36.4l-.7 12.1h.7c2.4-4.5 6.2-8.2 11.5-11.2 5.2-3 11-4.5 17.2-4.5 10.7 0 18.9 3.1 24.5 9.4 5.6 6.3 8.5 14.6 8.5 24.9v56.4H1386v-54.2c0-8-2-13.8-6-17.6-4-3.8-9.3-5.7-15.7-5.7-4.6 0-8.8 1.4-12.7 4.1-3.9 2.8-6.9 6.3-9.1 10.7-2.2 4.4-3.4 8.9-3.4 13.6v49h-14.7V57.3zM1421.6 92.9h14v13h.7c2.5-4.5 6.3-8.2 11.4-11.2 5.1-3 10.4-4.5 16.1-4.5 6.4 0 12.1 1.5 16.8 4.6 4.8 3.1 8.2 7.2 10.3 12.4 3.1-5.2 7.2-9.3 12.3-12.4 5.1-3.1 11.1-4.6 17.9-4.6 10.1 0 17.7 3.1 22.9 9.2 5.1 6.2 7.7 14.5 7.7 25.1v56.4h-14.5v-54.2c0-8.2-1.7-14.1-5-17.8-3.3-3.7-8.3-5.5-14.8-5.5-4.4 0-8.3 1.3-11.9 3.8s-6.4 5.9-8.4 10.2-3 8.9-3 13.8v49.7h-14.7v-54c0-8.3-1.7-14.3-5-18-3.3-3.7-8.2-5.5-14.7-5.5-4.4 0-8.3 1.3-11.9 3.9-3.6 2.6-6.4 6-8.4 10.4-2 4.3-3 9-3 13.9V181h-14.7V92.9zM1582.7 179.8c-5.1-2.5-9-6-11.7-10.4-2.8-4.4-4.1-9.5-4.1-15.1 0-9.3 3.5-16.6 10.5-21.8 7-5.2 15.9-7.9 26.6-7.9 5.3 0 10.2.6 14.8 1.7 4.5 1.2 8 2.5 10.4 4V125c0-6.6-2.3-11.8-6.9-15.8-4.6-4-10.4-6-17.4-6-5 0-9.5 1.1-13.6 3.2s-7.4 5.1-9.8 8.9l-11-8.3c3.5-5.3 8.2-9.4 14.2-12.4s12.7-4.5 20.1-4.5c12 0 21.4 3.1 28.2 9.4 6.8 6.3 10.3 14.8 10.3 25.6v55.8h-14v-12.6h-.7c-2.5 4.3-6.3 7.9-11.4 10.9s-10.8 4.5-17.1 4.5c-6.6 0-12.4-1.3-17.4-3.9zm32.4-12.9c4.3-2.5 7.7-5.9 10.2-10.2 2.5-4.3 3.8-8.9 3.8-14-2.8-1.8-6.2-3.3-10.2-4.5-4-1.2-8.3-1.7-12.8-1.7-8.1 0-14.1 1.7-18.2 5s-6.1 7.7-6.1 13c0 4.8 1.8 8.8 5.5 11.7 3.7 3 8.3 4.5 14 4.5 5 0 9.6-1.3 13.8-3.8zM1663.5 57.3h14.7V135l41.4-42.1h18.6v.7l-34.5 34.9 35.4 51.8v.7h-17.4l-28.3-42.3-15.2 15.2V181h-14.7V57.3zM1764.6 177.6c-6.7-4-11.9-9.6-15.6-16.7-3.7-7.1-5.6-15-5.6-23.9 0-8.5 1.8-16.3 5.3-23.5 3.5-7.1 8.5-12.8 14.9-17.1 6.4-4.3 13.9-6.4 22.4-6.4 8.6 0 16.1 1.9 22.4 5.8 6.3 3.9 11.2 9.2 14.6 16 3.4 6.8 5.1 14.6 5.1 23.3 0 1.7-.2 3.2-.5 4.5H1758c.3 6.7 2 12.3 4.8 16.9 2.9 4.6 6.5 8.1 11 10.4 4.4 2.3 9.1 3.4 13.9 3.4 11.3 0 20-5.3 26.1-15.9l12.4 6c-3.8 7.1-8.9 12.8-15.4 16.9-6.5 4.1-14.4 6.2-23.6 6.2-8.4.2-15.9-1.9-22.6-5.9zm48-50c-.2-3.7-1.3-7.4-3.1-11-1.8-3.7-4.7-6.8-8.7-9.3-4-2.5-9-3.8-14.9-3.8-6.9 0-12.7 2.2-17.5 6.6-4.8 4.4-7.9 10.3-9.4 17.5h53.6zM1845.2 92.9h14V107h.7c1.7-4.8 5.1-8.9 10-12.1 4.9-3.2 10.1-4.8 15.5-4.8 4 0 7.5.6 10.4 1.9v15.7c-3.7-1.8-7.8-2.8-12.4-2.8-4.3 0-8.2 1.2-11.7 3.6-3.6 2.4-6.4 5.7-8.5 9.8-2.1 4.1-3.2 8.5-3.2 13.2v49.3h-14.7V92.9zM1913.6 177c-6.3-4.4-10.8-10.1-13.5-17l13.1-5.9c2.2 5.3 5.4 9.4 9.8 12.3 4.3 2.9 9.1 4.3 14.2 4.3 5.5 0 10.2-1.1 14.2-3.4 3.9-2.2 5.9-5.4 5.9-9.6 0-3.7-1.6-6.6-4.7-8.9-3.1-2.2-8-4.2-14.7-5.8l-10.7-2.8c-7-1.7-12.8-4.6-17.3-8.8-4.5-4.1-6.7-9.5-6.7-16.1 0-5.1 1.5-9.5 4.6-13.4 3-3.9 7.1-6.8 12.2-8.9 5.1-2.1 10.5-3.1 16.4-3.1 7.7 0 14.6 1.7 20.6 5 6 3.3 10.3 8 12.9 14L1957 115c-3.9-7.8-10.9-11.7-20.9-11.7-4.8 0-9.1 1.1-12.7 3.4-3.6 2.2-5.4 5.1-5.4 8.5 0 3.2 1.3 5.8 3.8 7.9 2.5 2 6.3 3.7 11.4 4.9l12.8 3.3c8.6 2.2 15.1 5.4 19.5 9.7 4.4 4.3 6.6 9.6 6.6 15.8 0 5.4-1.6 10.2-4.7 14.2-3.1 4.1-7.3 7.2-12.6 9.4s-11.2 3.3-17.6 3.3c-9.4 0-17.3-2.3-23.6-6.7z"/></g><defs><path id="a" d="M238.5 204.2c.7-.9 1.1-1.9 1.3-3.1.6-2.1.5-4.5.2-5.8V55.5c0-4.2-3.4-7.6-7.7-7.6h-32c-4.2 0-7.7 3.6-7.7 7.7l-.5 68.9-15.5-23.7c-1.6-2.9-4.6-4.8-7.5-5h-31.2c-3.1 0-5.6 1.6-7.4 4.4l-17.7 25.4V55.5c0-4.2-2.9-7.6-7.2-7.6H73.1c-4.2 0-7.7 3.4-7.7 7.7v141.7c-.9 5.2 2.3 10.1 8.1 10.1H105.8c3 0 5.6-1.7 7.4-4.5l39.7-60.1 40.4 60.2c.1.1.2.3.2.4 0 .1.1.1.1.2 0 0 0 .1.1.1l.9 1.2c1.3 1.6 2.8 2.3 4.6 2.5.4 0 .7.1 1.1.1h32.6c2.8-.3 4.4-1.6 5.6-3.3z"/></defs><clipPath id="b"><use xlink:href="#a" overflow="visible"/></clipPath><g clip-path="url(#b)"><linearGradient id="c" gradientUnits="userSpaceOnUse" x1="39.155" y1="77.949" x2="138.366" y2="177.161"><stop offset="0" stop-color="#fff" stop-opacity=".2"/><stop offset="1" stop-color="#fff" stop-opacity="0"/></linearGradient><path d="M105.1 207.3H72.4c-4.2 0-7.7-3.4-7.7-7.7V55.5c0-4.2 3.4-7.7 7.7-7.7h32.7c4.2 0 7.7 3.4 7.7 7.7v144.1c-.1 4.2-3.5 7.7-7.7 7.7z" opacity=".3" fill="url(#c)"/><path d="M232.3 207.3h-32.5c-4.2 0-7.7-3.4-7.7-7.7V55.5c0-4.1 3.4-7.7 7.7-7.7h32.5c4.2 0 7.7 3.4 7.7 7.7v144.1c0 4.2-3.4 7.7-7.7 7.7z" fill="#00bfa5"/><path d="M239.2 199.6V55.5c0-3.8-3-7.2-7.3-7.6 4.7 0 8.1 3.4 8 7.6v144.1h-.7z" fill="#04a88c" opacity=".3"/><path d="M192.9 200h-.7V55.9c-.1-2.8 1.1-4.9 2.7-6.2 1.2-1 2.9-1.7 4.3-1.8h33.5c2 0 4.5 1.2 6 3.4.8 1.2 1.3 2.8 1.3 4.6 0-4-3.3-7.3-7.3-7.3h-32.5c-2.5 0-4.6 1-5.8 2.7-.7.9-1.4 2.2-1.5 3.5-.1 1.2-.1 2.5-.1 2.9l.1 142.3z" fill="#1ce9b6" opacity=".3"/><path d="M105.1 207.3l-31.9-.6c-4.2 0-8.3-2.8-8.3-7V55.5c0-4.2 3.4-7.7 7.7-7.7h32.5c4.2 0 7.7 3.4 7.7 7.7v144.1c-.1 4.2-3.5 7.7-7.7 7.7z" fill="#4285f4"/><path d="M130 108.1l62.9 94.7c2 3.6 4.3 4.4 7.4 4.4h32.1c8.3 0 8.7-10.1 7.4-12.4L175.9 100c-1.8-2.8-4.3-4.4-7.4-4.4" fill="#1ce9b6"/><path d="M200.9 207.3c-3.1 0-5.8-.5-7.9-4.2l-40.2-60.6-22.5-34.2.6-.4 62.6 94.6.2.4c2 3.5 4.3 4.4 7.2 4.4z" fill="#46f7c5" opacity=".4"/><path fill="#2a6fd3" d="M112.7 126.7h-.3l.2-71.6.1-.1z" opacity=".3"/><path d="M65.6 197.4h-.7V55.7c0-.4 0-.8.1-1.2.3-2.2 1.5-4 3.1-5.2 1.2-.9 2.8-1.4 4.4-1.4h32.9c2.2 0 4.3 1.2 5.6 2.8 1.1 1.3 1.7 3 1.7 4.4h-.2c0-2.6-3-6.6-7.2-6.6H72.5c-2.2 0-4.1 1-5.4 2.6-.6.8-1.9 2.7-1.9 5.4l.4 140.9z" fill="#4fc3f7" opacity=".3"/><path d="M232.3 207.3h-32c-3.1 0-5.2-.6-7.4-4.4l.6-.4c2 3.5 3.9 4 6.7 4h32c2.8 0 4.7-1 6-3.3 1.8-3.1 1.6-6.6.9-7.8L175 100.3l.6-.4 64.2 95.1c.9 1.6.2 7-.9 8.6-1.1 1.8-2.8 3.7-6.6 3.7z" fill="#24ce9e" opacity=".3"/><path d="M105.7 207.3H73c-6.7 0-9.9-6.4-7.4-12.4l64.4-94.8c1.8-2.8 4.3-4.4 7.4-4.4h31.2c6.4 0 10.2 6.8 7.2 12.4l-62.7 94.7c-1.8 2.8-4.3 4.5-7.4 4.5z" fill="#4fc3f7"/><path d="M78.1 207.2h-4.7c-3.3 0-5.7-1.3-7.3-3.6-1.6-2.5-1.8-5.7-.5-8.8l.1-.1L130 100c2-3 4.6-4.3 7.6-4.3h31.2c1.2 0 2.3.3 3.3.8.8.4 1.5.9 2.1 1.5.6.6 1.1 1.2 1.5 2 0 0-4.1-3.5-6.9-3.5h-31.2c-2.8 0-5.2 1.2-7 4l-64.4 94.7c-1.2 2.9-1 5.9.4 8.1 1.4 2.1 3.7 3.6 6.6 3.6l4.9.3z" fill="#6ed2f4" opacity=".3"/><path d="M105.7 207.3H72.2c-1.6-.1-3.1-.7-4.3-1.6l-1.2-1.2c1.1.8 3.9 1.9 5.4 2 1.2.1 33.3.1 33.7.1 2.9 0 5.3-1.5 7.1-4.3l62.6-94.7c1.4-2.6 1.2-5.3-.3-7.8-.5-.9-1.3-2.3-2.4-2.9-1.8-1.1-1.2-.7 0 0 1.1.6 2 1.5 2.8 2.6 1.7 2.6 1.8 6.2.5 8.5v.1c-5.2 7.9-13.8 20.9-23 34.8-18.6 28.1-39.6 59.9-39.6 59.9-2.2 2.9-4.7 4.5-7.8 4.5z" fill="#30a5ce" opacity=".3"/></g><g opacity=".3"><path d="M79.8 228.5c0-2.8-2.5-4.8-5.2-4.8l-37.2-.3c-.9 0-1.9-.3-2.7-.7l-.1-.1c-.2-.1-.4-.2-.6-.4l-.2-.2c.5.4 1.2.8 1.9.9.1 0 .5.1.6.1h38.2c1.2 0 2.3.4 3.1 1 .6.5 1.2 1.1 1.5 1.9.5.8.7 1.4.7 2.6zM5.1 0h69.7c2.4 0 5.1 2 5.1 5 0-2.6-3-4.4-5.1-4.4H5.1c-.1 0-.2 0-.4.1L3.8.2c.3-.1.7-.2 1.3-.2z" fill="#4fc3f7"/></g><g fill="#1ce9b6" opacity=".3"><path d="M267.2 32.1c3 0 5.4 1.8 5.4 4.8l.1 180.9c0 1.7-.5 3.3-1.6 4.4-1.1 1.1-2.7 1.7-4.5 1.7h-37c-2.6 0-4.5 1.9-4.5 4.4v21.3c0 1.2.3 2.8 1.3 3.8 1.2 1.2 3.1 1.6 3.1 1.6-.3 0-.6 0-.8-.1-2.8-.5-4.4-2.6-4.4-5.3v-21.3c0-3 2.2-5.2 5.2-5.2h37c1.6 0 3-.5 4-1.5s1.5-2.4 1.4-3.9V36.8c.1-2.5-2.2-4.7-4.7-4.7zM229.6 31.4h37.6M229.6 32.1c-3.3 0-5.3-2.4-5.3-5.4V4.8c0-2.3 2.1-4.8 5.1-4.8.1 0 57.1.1 69.3 0 1.6 0 2.8.9 2.8.9l-1-.2h-71c-2.5.1-4.3 1.7-4.3 4.2l-.2 21.9c0 2.6 1.9 5.4 4.5 5.4"/></g><path d="M74.7 255.1H5.1c-2.8 0-5.1-2.3-5.1-5.1V5.1C0 2.3 2.3 0 5.1 0h69.6c2.8 0 5.1 2.3 5.1 5.1v21.7c0 2.8-2.3 5.1-5.1 5.1H37c-2.8 0-5.1 2.3-5.1 5.1v180.9c0 2.8 2.3 5.1 5.1 5.1h37.7c2.8 0 5.1 2.3 5.1 5.1V250c0 2.8-2.3 5.1-5.1 5.1z" fill="#4285f4"/><g opacity=".3"><path d="M5 255.1c-1.9 0-3.5-1.1-4.5-2.9.9 1.6 2.8 2.2 4.5 2.2h69.6c2.7 0 4.5-2 4.5-4l.2-21.8s-.1-1.7-.2-2l-.4-1.6.3.5s.7 1.2.7 2.5v22.4c0 2.3-2.3 4.7-5.2 4.7H5zM36.5 223c-1.3 0-5.4-1.7-5.4-4.7v-181c0-3 2.3-6.3 5.3-6.3h37.3c2.5 0 5.3-1.2 5.3-3.9V5.5C79 2.9 76.9 0 74.2 0c1.9-.1 3.5.7 4.5 2.1.7.9 1.1 2.1 1 3.4V27s0 .3-.1.7c-.1.7-.4 1.4-.8 2-.5.7-1.2 1.3-1.9 1.7-.9.5-2.1.6-3.3.5H36.7c-.9 0-1.6.3-2.3.7-1.7 1-2.7 2.8-2.6 4.8v180.9c0 1.1.5 2 1.1 2.7.9 1.2 2.3 1.9 3.6 2z" fill="#2a6fd3"/></g><path d="M229.4 0h69.3c2.8 0 5.1 2.3 5.1 5.1V250c0 2.8-2.3 5.1-5.1 5.1h-69.3c-2.8 0-5.1-2.3-5.1-5.1v-21.7c0-2.8 2.3-5.1 5.1-5.1h37.5c2.8 0 5.1-2.3 5.1-5.1V37.2c0-2.8-2.3-5.1-5.1-5.1h-37.5c-2.8 0-5.1-2.3-5.1-5.1V5.1c0-2.8 2.3-5.1 5.1-5.1z" fill="#00bfa5"/><path d="M300.3 254.8c1.7-.8 2.7-3 2.7-4.8V5.4c0-1.9-1.1-4.3-2.7-5 1.7.6 3 2 3.3 3.9.1.4.1.8.1 1.2v244.6c.1 2-1.2 3.9-3.4 4.7z" fill="#04a88c" opacity=".3"/><path d="M299.4 255c-.2 0-.6.1-.8.1h-68.1c-.9 0-1.6 0-2.3-.1-.5-.1-1.3-.4-1.9-.9l-.3-.3-.2-.2s1.3.6 1.9.7c1.2.2 1.9.1 2.8.1h.6l67.7.1c1 0 2.8-.4 3.6-1l-.3.3c-.5.5-1.2.9-2 1.1-.1 0-.5.1-.7.1z" fill="#04a88c" opacity=".3"/><g opacity=".4"><path d="M224.3 26.7c0 2.6 2.7 4.7 5.3 4.7h37.5c3 0 4.8 2.2 4.8 5.2-.2-2.3-2.2-4.6-4.8-4.6h-37.5c-3 0-5.1-2.3-5.3-4.5v-.8z" fill="#04a88c"/></g><g opacity=".4"><path d="M3.8.2l.9.5c-2.5.4-4 2.6-4 4.4v244.6c0 1.9 1.1 4.3 2.7 5-1.7-.6-3-2-3.3-3.9-.1-.2-.1-.6-.1-1V5.1C0 3 1.5.7 3.8.2z" fill="#4fc3f7"/></g><g><linearGradient id="d" gradientUnits="userSpaceOnUse" x1="1.114" y1="127.563" x2="80.897" y2="127.563"><stop offset="0" stop-color="#fff" stop-opacity=".1"/><stop offset="1" stop-color="#fff" stop-opacity="0"/></linearGradient><path d="M75.8 255.1H6.2c-2.8 0-5.1-2.3-5.1-5.1V5.1C1.1 2.3 3.4 0 6.2 0h69.6c2.8 0 5.1 2.3 5.1 5.1v21.7c0 2.8-2.3 5.1-5.1 5.1H38.1c-2.8 0-5.1 2.3-5.1 5.1v180.9c0 2.8 2.3 5.1 5.1 5.1h37.7c2.8 0 5.1 2.3 5.1 5.1V250c0 2.8-2.3 5.1-5.1 5.1z" fill="url(#d)"/><g opacity=".3"><linearGradient id="e" gradientUnits="userSpaceOnUse" x1="1.604" y1="240.044" x2="80.893" y2="240.044"><stop offset="0" stop-color="#fff" stop-opacity=".1"/><stop offset="1" stop-color="#fff" stop-opacity="0"/></linearGradient><path d="M6.1 255.1c-1.9 0-3.5-1.1-4.5-2.9.9 1.6 2.8 2.2 4.5 2.2h69.6c2.7 0 4.5-2 4.5-4l.2-21.8s-.1-1.7-.2-2l-.4-1.6.3.5s.7 1.2.7 2.5v22.4c0 2.3-2.3 4.7-5.2 4.7H6.1z" fill="url(#e)"/><g><linearGradient id="f" gradientUnits="userSpaceOnUse" x1="32.192" y1="111.52" x2="80.894" y2="111.52"><stop offset="0" stop-color="#fff" stop-opacity=".1"/><stop offset="1" stop-color="#fff" stop-opacity="0"/></linearGradient><path d="M37.6 223c-1.3 0-5.4-1.7-5.4-4.7V37.4c0-3 2.3-6.3 5.3-6.3h37.3c2.5 0 5.3-1.2 5.3-3.9V5.5C80.1 2.9 78 0 75.4 0c1.9-.1 3.5.7 4.5 2.1.7.9 1.1 2.1 1 3.4V27s0 .3-.1.7c-.1.7-.4 1.4-.8 2-.5.7-1.2 1.3-1.9 1.7-.9.5-2.1.6-3.3.5H37.9c-.9 0-1.6.3-2.3.7-1.7 1-2.7 2.8-2.6 4.8v180.9c0 1.1.5 2 1.1 2.7.8 1.2 2.2 1.9 3.5 2z" fill="url(#f)"/></g></g><linearGradient id="g" gradientUnits="userSpaceOnUse" x1="225.45" y1="127.563" x2="304.877" y2="127.563"><stop offset="0" stop-color="#fff" stop-opacity=".1"/><stop offset="1" stop-color="#fff" stop-opacity="0"/></linearGradient><path d="M230.5 0h69.3c2.8 0 5.1 2.3 5.1 5.1V250c0 2.8-2.3 5.1-5.1 5.1h-69.3c-2.8 0-5.1-2.3-5.1-5.1v-21.7c0-2.8 2.3-5.1 5.1-5.1H268c2.8 0 5.1-2.3 5.1-5.1V37.2c0-2.8-2.3-5.1-5.1-5.1h-37.5c-2.8 0-5.1-2.3-5.1-5.1V5.1c.1-2.8 2.3-5.1 5.1-5.1z" fill="url(#g)"/><g opacity=".3"><linearGradient id="h" gradientUnits="userSpaceOnUse" x1="301.422" y1="127.577" x2="304.877" y2="127.577"><stop offset="0" stop-color="#fff" stop-opacity=".1"/><stop offset="1" stop-color="#fff" stop-opacity="0"/></linearGradient><path d="M301.4 254.8c1.7-.8 2.7-3 2.7-4.8V5.4c0-1.9-1.1-4.3-2.7-5 1.7.6 3 2 3.3 3.9.1.4.1.8.1 1.2v244.6c.1 2-1.2 3.9-3.4 4.7z" fill="url(#h)"/></g><g opacity=".3"><linearGradient id="i" gradientUnits="userSpaceOnUse" x1="226.905" y1="254.307" x2="303.485" y2="254.307"><stop offset="0" stop-color="#fff" stop-opacity=".1"/><stop offset="1" stop-color="#fff" stop-opacity="0"/></linearGradient><path d="M300.5 255c-.2 0-.6.1-.8.1h-68.1c-.9 0-1.6 0-2.3-.1-.5-.1-1.3-.4-1.9-.9l-.3-.3-.2-.2s1.3.6 1.9.7c1.2.2 1.9.1 2.8.1h.6l67.7.1c1 0 2.8-.4 3.6-1l-.3.3c-.5.5-1.2.9-2 1.1-.1 0-.5.1-.7.1z" fill="url(#i)"/></g></g></svg>